<?xml version="1.0" standalone="no"?>
<!DOCTYPE svg PUBLIC "-//W3C//DTD SVG 20010904//EN"
 "http://www.w3.org/TR/2001/REC-SVG-20010904/DTD/svg10.dtd">
<svg version="1.0" xmlns="http://www.w3.org/2000/svg"
 width="920.000000pt" height="518.000000pt" viewBox="0 0 920.000000 518.000000"
 preserveAspectRatio="xMidYMid meet">

<g transform="translate(0.000000,518.000000) scale(0.100000,-0.100000)"
fill="#000000" stroke="none">
<path d="M5901 5089 c-13 -5 -22 -12 -19 -15 8 -8 58 7 58 17 0 11 -8 11 -39
-2z"/>
<path d="M6610 4727 c0 -18 28 -42 37 -33 9 8 -9 38 -25 44 -7 2 -12 -3 -12
-11z"/>
<path d="M5178 4723 c7 -3 16 -2 19 1 4 3 -2 6 -13 5 -11 0 -14 -3 -6 -6z"/>
<path d="M6720 4624 c0 -8 5 -12 10 -9 6 4 8 11 5 16 -9 14 -15 11 -15 -7z"/>
<path d="M5565 4590 c-9 -15 -1 -23 21 -18 15 3 16 4 1 16 -11 9 -17 10 -22 2z"/>
<path d="M6460 4580 c0 -13 7 -20 20 -20 11 0 20 1 20 3 0 1 -9 10 -20 20 -19
16 -20 16 -20 -3z"/>
<path d="M6756 4581 c-4 -7 -5 -15 -2 -18 9 -9 19 4 14 18 -4 11 -6 11 -12 0z"/>
<path d="M6145 4560 c4 -6 11 -8 16 -5 14 9 11 15 -7 15 -8 0 -12 -5 -9 -10z"/>
<path d="M3342 4532 c-18 -15 -32 -33 -32 -39 0 -7 -5 -13 -11 -13 -5 0 -7 -4
-4 -10 3 -5 13 -10 21 -10 20 0 103 62 104 77 0 6 6 14 13 16 6 3 -4 6 -23 6
-24 0 -45 -8 -68 -27z"/>
<path d="M1770 4465 c-7 -9 -11 -18 -8 -20 3 -3 11 1 18 10 7 9 11 18 8 20 -3
3 -11 -1 -18 -10z"/>
<path d="M1197 4411 c-3 -12 -1 -21 3 -21 15 0 23 21 12 32 -6 6 -11 2 -15
-11z"/>
<path d="M6350 4413 c0 -12 75 -73 89 -73 16 0 13 46 -3 59 -19 16 -86 26 -86
14z"/>
<path d="M6610 4410 c0 -5 5 -10 10 -10 6 0 10 5 10 10 0 6 -4 10 -10 10 -5 0
-10 -4 -10 -10z"/>
<path d="M3380 4387 c0 -7 6 -25 13 -40 10 -22 19 -27 48 -27 22 0 42 7 52 18
15 16 15 20 1 40 -12 18 -25 22 -65 22 -33 0 -49 -4 -49 -13z"/>
<path d="M6235 4380 c-4 -6 6 -10 22 -10 22 0 25 2 13 10 -19 12 -27 12 -35 0z"/>
<path d="M6770 4359 c0 -14 41 -48 58 -49 20 0 14 17 -14 39 -30 23 -44 27
-44 10z"/>
<path d="M7790 4357 c0 -9 -4 -17 -10 -17 -5 0 -10 -7 -10 -15 0 -8 -4 -23 -9
-33 -5 -9 -12 -25 -15 -34 -4 -14 -16 -18 -50 -18 -25 0 -48 -4 -51 -10 -3 -5
-24 -10 -46 -10 -32 0 -39 3 -39 20 0 25 -5 25 -41 -1 -21 -14 -42 -20 -72
-19 -60 4 -67 2 -67 -15 0 -18 -50 -21 -68 -3 -9 9 -12 7 -12 -9 0 -44 -87
-79 -126 -51 -7 5 -17 2 -24 -7 -25 -31 -120 -4 -120 34 0 6 -4 11 -10 11 -5
0 -10 5 -10 11 0 16 -53 99 -63 99 -5 0 -5 -9 -2 -20 4 -11 2 -20 -4 -20 -6 0
-11 -7 -11 -15 0 -22 -37 -18 -54 6 -8 12 -19 18 -25 14 -18 -11 -12 -70 9
-93 11 -12 20 -29 20 -38 0 -13 3 -14 15 -4 8 7 15 20 15 30 0 18 26 30 68 30
15 0 22 -6 22 -19 0 -11 6 -21 13 -24 9 -3 9 -9 -2 -29 -9 -19 -24 -28 -50
-31 -20 -3 -48 -9 -64 -12 -22 -6 -35 -1 -73 30 -25 20 -48 34 -52 31 -3 -4 0
-11 7 -15 7 -5 11 -15 9 -22 -3 -8 2 -19 11 -25 13 -10 13 -14 1 -29 -10 -12
-23 -15 -47 -12 -29 5 -33 3 -33 -18 0 -12 -7 -26 -16 -29 -13 -5 -15 -2 -10
16 25 80 9 168 -29 168 -9 0 -30 -21 -47 -47 -41 -60 -148 -168 -189 -188 -41
-22 -73 -16 -77 13 -4 24 -22 31 -22 7 0 -18 -13 -19 -57 -3 -24 9 -33 18 -33
34 0 13 5 26 10 29 6 3 10 15 10 26 0 25 -18 15 -30 -16 -18 -47 -125 -72
-183 -42 -23 12 -24 15 -11 38 20 36 17 103 -5 130 -17 21 -21 22 -46 11 -24
-11 -31 -10 -49 6 -31 28 -51 32 -75 16 -25 -18 -27 -52 -5 -69 14 -10 4 -20
-71 -70 -48 -32 -113 -79 -145 -106 -39 -32 -61 -44 -70 -39 -8 5 -26 6 -42 3
-20 -4 -36 2 -65 26 l-37 31 -31 -30 c-21 -21 -41 -30 -63 -30 l-32 0 0 -63
c0 -35 -6 -75 -12 -89 -12 -25 -15 -22 -84 109 -92 171 -165 283 -185 283 -8
0 -31 -16 -50 -36 -66 -68 -67 -67 -62 54 5 99 4 109 -16 134 l-22 28 -32 -29
c-248 -220 -306 -275 -310 -294 -3 -12 -9 -54 -12 -93 l-7 -71 -38 7 c-20 4
-48 14 -61 23 -17 13 -45 17 -110 17 -101 0 -179 -9 -179 -21 0 -19 -36 -49
-57 -49 -21 0 -23 4 -23 55 0 75 -20 96 -82 85 -24 -5 -61 -11 -83 -14 -22 -3
-114 -21 -205 -40 -91 -20 -175 -35 -187 -36 -12 0 -35 -12 -52 -26 -22 -18
-31 -21 -31 -11 0 8 -9 26 -20 40 -19 24 -23 25 -48 12 -15 -7 -53 -21 -85
-30 -56 -16 -58 -16 -87 5 -17 12 -30 28 -30 36 0 12 -9 15 -37 12 -25 -2 -38
2 -41 12 -8 24 -30 41 -37 30 -3 -5 -22 -10 -42 -10 -34 0 -35 1 -31 30 3 17
1 30 -4 30 -4 0 -8 -7 -8 -15 0 -12 -13 -15 -57 -15 -58 1 -85 12 -96 40 -3 8
-6 1 -6 -17 -1 -36 -20 -45 -64 -30 -17 6 -27 16 -27 29 0 10 -4 17 -9 14 -5
-3 -7 -14 -4 -24 3 -13 -7 -24 -37 -40 -53 -28 -90 -29 -97 -3 -5 19 -6 19
-31 -5 -15 -13 -30 -24 -34 -24 -5 0 -8 -6 -8 -14 0 -35 -83 -53 -116 -25 -8
6 -14 8 -14 4 0 -5 -9 0 -20 10 -11 10 -20 31 -20 47 0 21 -5 28 -19 28 -10 0
-24 7 -31 15 -7 8 -28 15 -46 15 -19 0 -34 5 -34 10 0 6 -19 10 -41 10 -32 0
-53 8 -91 36 -37 27 -52 34 -61 25 -14 -14 -64 -15 -72 -1 -3 6 -21 10 -38 10
-18 0 -42 7 -54 15 -14 10 -24 12 -28 5 -8 -13 -52 -13 -60 0 -4 7 -11 7 -18
2 -7 -5 -24 -12 -40 -16 -24 -6 -27 -4 -27 19 0 45 -19 65 -88 96 -198 89
-504 121 -633 65 -66 -28 -102 -93 -133 -239 -5 -23 -10 -26 -25 -18 -28 15
-72 -18 -213 -160 -178 -179 -282 -307 -330 -407 -54 -112 -65 -183 -50 -323
12 -107 12 -111 -8 -127 -13 -10 -23 -33 -26 -57 -7 -50 39 -147 149 -313 40
-61 69 -113 63 -115 -6 -2 -24 -3 -41 -2 -16 2 -59 -6 -95 -18 -59 -18 -62
-21 -40 -30 14 -5 37 -9 52 -8 22 2 28 -3 34 -26 4 -15 15 -35 26 -44 17 -13
21 -29 22 -95 1 -59 -3 -82 -14 -92 -13 -11 -13 -12 2 -10 11 2 26 -16 47 -55
32 -61 32 -77 3 -77 -10 0 -26 -10 -36 -21 -15 -18 -26 -21 -62 -16 -33 3 -49
0 -61 -11 -14 -14 -13 -18 8 -34 19 -16 23 -29 23 -84 1 -42 -3 -64 -11 -64
-6 0 -9 -8 -6 -18 3 -12 14 -18 31 -17 23 0 27 -4 27 -27 -1 -24 3 -28 28 -28
20 0 30 -6 34 -20 3 -12 14 -20 27 -20 12 0 31 -7 42 -15 10 -8 40 -15 67 -15
35 0 47 -4 47 -15 0 -8 6 -15 13 -15 16 0 47 -36 47 -54 0 -11 10 -13 38 -9
39 5 39 5 34 -26 -3 -20 -10 -31 -21 -31 -12 0 -13 -2 -3 -9 8 -5 12 -22 10
-42 -3 -30 -7 -34 -35 -37 -21 -2 -33 -9 -33 -18 0 -8 -7 -17 -15 -20 -30 -12
-14 -24 27 -22 38 3 43 0 46 -20 3 -21 5 -22 16 -7 15 21 96 33 96 15 0 -9 16
-11 65 -5 57 6 66 4 72 -11 4 -10 2 -19 -5 -22 -7 -2 -12 -10 -12 -18 0 -8 -5
-14 -11 -14 -8 0 -8 -5 1 -15 8 -9 30 -15 56 -15 46 0 84 -25 84 -55 0 -8 6
-15 13 -15 8 0 28 -7 45 -16 51 -25 114 -10 162 38 25 26 45 38 55 35 16 -7
21 -47 5 -47 -5 0 -10 -13 -10 -28 0 -36 42 -68 101 -77 40 -6 48 -3 91 29 26
20 50 36 54 36 5 0 24 -11 44 -25 44 -31 97 -48 106 -34 3 5 15 -9 27 -33 27
-53 64 -60 85 -16 11 24 15 26 45 17 17 -5 44 -18 59 -29 15 -11 32 -20 38
-20 5 0 10 -4 10 -9 0 -14 124 -71 185 -86 30 -7 55 -8 55 -4 0 5 5 9 10 9 6
0 28 11 50 25 22 14 46 25 55 25 9 0 15 9 15 23 0 12 6 32 14 43 8 12 18 43
21 71 l7 49 83 3 c63 1 86 -2 98 -14 19 -18 56 -19 93 -3 19 9 28 10 31 2 2
-6 14 -9 27 -7 13 3 27 0 30 -6 9 -14 116 -15 116 -1 0 6 7 10 15 10 9 0 20
11 25 24 10 26 67 45 91 30 13 -8 62 -15 122 -17 45 -2 64 -25 47 -57 -11 -21
-4 -70 11 -70 5 0 9 -7 9 -15 0 -8 7 -15 15 -15 9 0 27 -7 41 -16 19 -13 38
-15 86 -10 54 5 66 11 94 41 17 19 38 35 45 35 10 1 9 5 -4 14 -10 8 -15 20
-11 30 3 9 2 16 -4 16 -16 0 -25 52 -10 62 10 8 10 11 1 15 -18 7 -16 23 2 23
14 0 35 29 35 48 0 5 -18 12 -40 15 -93 12 -148 118 -82 160 6 4 12 14 12 21
0 8 6 14 13 13 35 -1 57 4 57 14 0 6 -8 13 -19 16 -16 4 -17 10 -10 41 4 20 5
40 2 46 -4 5 3 7 15 4 12 -4 20 -3 17 2 -4 7 28 20 49 19 5 -1 12 4 15 9 6 10
67 43 76 42 3 0 12 5 20 12 32 29 45 38 45 33 0 -7 24 12 48 38 9 9 22 17 29
17 7 0 13 5 13 11 0 6 6 9 14 6 8 -3 13 1 12 11 0 10 6 16 16 16 11 -1 14 4
11 14 -4 10 -2 13 5 8 7 -4 12 -2 12 4 0 6 4 9 9 5 6 -3 6 6 1 25 -5 18 -5 30
1 30 5 0 9 7 9 15 0 8 -7 15 -15 15 -27 0 -16 24 41 90 30 36 71 91 91 123 20
31 41 57 48 57 8 0 10 9 7 25 -5 30 21 44 49 27 25 -16 29 -15 29 6 0 18 51
52 78 52 9 0 25 -7 35 -14 15 -12 17 -33 17 -182 0 -177 8 -304 19 -304 4 0 8
10 8 23 1 12 5 59 8 105 5 58 4 82 -4 82 -7 0 -11 36 -11 110 0 103 1 110 20
110 11 0 20 5 20 10 0 6 -4 10 -9 10 -5 0 -11 8 -15 18 -3 9 -9 23 -12 30 -4
8 4 12 24 12 27 0 30 -3 34 -44 4 -35 32 -87 124 -235 135 -219 117 -207 261
-172 234 56 414 150 571 296 l73 68 32 -18 c30 -16 36 -16 70 -2 32 14 37 21
37 48 0 29 -2 31 -27 26 -43 -8 -59 8 -55 57 2 23 -3 59 -12 79 -15 36 -14 38
17 79 35 45 57 59 57 34 0 -9 4 -16 9 -16 4 0 25 -25 45 -55 20 -31 47 -60 60
-66 13 -6 34 -35 49 -69 24 -52 69 -117 144 -208 l27 -34 -24 -18 c-28 -21
-32 -40 -12 -55 10 -8 7 -16 -15 -35 -15 -14 -22 -18 -15 -9 10 13 9 19 -5 30
-15 12 -16 12 -10 -3 3 -10 -1 -22 -11 -30 -15 -12 -16 -11 -4 4 12 15 11 17
-7 15 -11 0 -17 -6 -15 -12 3 -5 -1 -2 -8 7 -13 15 -15 15 -26 0 -10 -15 -11
-15 -5 2 7 21 -3 18 -42 -13 -11 -9 -17 -12 -13 -7 4 5 2 16 -5 25 -10 14 -10
14 4 3 13 -10 19 -10 28 2 10 12 9 13 -8 9 -13 -3 -21 -1 -21 8 0 8 -6 5 -16
-7 -8 -10 -12 -12 -8 -4 7 13 5 13 -9 1 -9 -7 -23 -11 -31 -8 -17 7 -75 -55
-77 -81 -3 -41 6 -59 44 -95 23 -21 43 -35 44 -30 3 9 96 9 111 -1 11 -7 67
42 67 59 0 5 11 12 25 16 22 6 23 7 7 14 -14 6 -16 10 -6 16 15 9 50 -7 62
-27 5 -10 29 -14 72 -14 62 0 95 -14 95 -41 0 -6 5 -7 12 -3 7 4 8 3 4 -5 -4
-6 0 -14 8 -17 9 -3 13 -10 10 -15 -3 -5 2 -9 10 -9 9 0 16 -4 16 -10 0 -5 7
-10 15 -10 8 0 15 -5 15 -11 0 -5 3 -8 8 -5 15 9 43 -23 47 -54 2 -18 9 -38
15 -45 9 -10 6 -14 -12 -17 -13 -2 -23 -10 -23 -18 0 -8 -9 -18 -20 -21 -13
-3 -19 -13 -18 -26 2 -17 -2 -20 -19 -15 -17 4 -20 2 -15 -12 5 -14 2 -17 -16
-16 -37 3 -43 1 -55 -24 -14 -31 -96 -45 -124 -20 -16 16 -21 16 -58 1 -37
-14 -41 -14 -61 4 -12 10 -32 19 -45 19 -13 0 -26 4 -29 10 -10 16 -35 12 -29
-5 8 -20 -19 -20 -36 0 -6 8 -9 23 -5 35 4 11 2 21 -4 21 -6 1 -16 2 -21 3 -6
0 -15 8 -20 16 -8 12 -11 12 -27 -2 -10 -10 -37 -20 -60 -24 -34 -5 -47 -2
-70 16 -31 24 -45 59 -30 78 6 8 6 12 -1 12 -5 0 -12 -7 -16 -15 -4 -11 -13
-14 -31 -9 -19 5 -25 2 -25 -10 0 -9 -8 -16 -19 -16 -10 0 -21 -7 -25 -15 -3
-9 0 -15 10 -15 8 0 12 -5 9 -10 -5 -8 -11 -7 -21 1 -11 9 -18 8 -32 -5 -24
-21 -122 -40 -136 -26 -20 20 -39 11 -32 -15 5 -18 2 -25 -9 -25 -14 0 -19 14
-18 47 0 6 -5 9 -13 6 -7 -2 -11 -10 -8 -18 3 -7 -2 -15 -11 -19 -9 -3 -13
-11 -10 -16 4 -6 1 -17 -5 -25 -6 -8 -9 -19 -5 -25 10 -16 -24 -24 -52 -11
-36 16 -58 -4 -40 -35 7 -12 22 -40 34 -62 23 -42 43 -61 43 -43 0 6 -4 11
-10 11 -5 0 -10 9 -10 20 0 12 7 20 16 20 13 0 15 7 11 29 -5 25 -2 31 31 47
20 11 45 27 55 37 22 21 63 22 71 2 8 -23 68 14 60 37 -4 13 0 18 14 18 24 0
37 -27 22 -45 -14 -17 6 -31 23 -17 7 6 23 12 36 14 14 1 26 9 29 17 3 10 -3
12 -26 6 -39 -8 -50 9 -18 30 29 19 71 11 62 -11 -4 -9 2 -14 17 -14 12 -1 33
-7 47 -15 33 -19 79 -19 86 0 8 19 38 20 53 2 8 -11 6 -18 -9 -32 -11 -10 -20
-22 -20 -27 0 -6 20 -30 46 -54 25 -24 42 -48 39 -53 -3 -5 -1 -12 5 -16 5 -3
10 1 10 10 0 13 9 16 43 14 23 -1 49 0 57 3 8 4 28 9 43 13 16 3 39 17 51 30
28 30 59 32 97 4 16 -11 45 -23 64 -26 20 -3 35 -11 35 -19 0 -21 14 -17 25 9
7 15 23 25 52 31 32 7 42 14 46 32 2 13 0 24 -4 24 -5 0 -9 7 -9 15 0 8 6 15
14 15 12 0 12 6 3 36 -13 43 0 56 47 43 19 -6 43 -5 63 2 39 13 138 -6 163
-31 11 -11 29 -15 58 -12 38 4 42 2 42 -19 0 -21 1 -22 13 -5 13 18 15 17 53
-2 21 -11 69 -30 107 -42 51 -17 67 -27 67 -41 0 -12 7 -19 19 -19 11 0 23
-11 30 -29 12 -27 16 -29 92 -35 97 -8 159 -30 159 -57 0 -11 7 -19 16 -19 9
0 22 -7 29 -16 9 -13 21 -15 58 -10 25 4 51 14 57 21 14 16 75 20 84 6 13 -21
76 -22 120 -1 46 20 123 26 161 11 11 -5 42 -2 70 5 64 17 75 17 75 0 0 -8 4
-17 9 -20 4 -3 6 6 3 20 -4 22 -2 25 19 22 20 -3 23 1 24 27 0 26 4 30 33 33
23 2 32 -1 32 -11 0 -8 7 -17 15 -21 23 -8 18 -35 -9 -46 -36 -13 -41 -29 -18
-53 18 -18 25 -19 47 -9 24 11 31 33 26 85 -2 11 5 17 18 17 11 0 23 5 26 10
13 22 85 8 85 -16 0 -11 7 -13 28 -8 15 4 31 11 37 15 5 5 15 9 22 9 19 0 56
-37 49 -48 -8 -13 58 -25 94 -17 24 5 31 2 46 -24 35 -58 167 -74 229 -27 23
18 85 21 85 5 0 -48 114 -67 189 -30 25 11 50 21 55 21 12 0 13 47 2 103 -5
21 -14 37 -22 37 -8 0 -14 4 -14 9 0 5 -10 11 -22 13 -13 2 -24 10 -26 19 -2
11 10 18 45 27 26 6 52 7 56 2 5 -4 69 -111 142 -236 140 -240 157 -259 189
-212 23 32 21 57 -28 408 -25 174 -47 348 -51 388 -6 70 -5 72 17 73 17 1 18
3 6 6 -10 2 -18 11 -18 19 0 14 11 18 38 15 6 -1 12 3 12 9 0 7 -12 9 -34 5
-32 -6 -34 -5 -40 29 -4 20 -29 69 -56 110 -55 82 -64 119 -27 115 37 -5 66
17 61 46 -3 15 0 25 7 25 8 0 8 4 -1 15 -9 11 -31 13 -92 10 l-79 -3 -46 70
c-24 39 -48 78 -51 87 -3 9 -19 35 -34 57 -15 23 -28 45 -28 48 0 3 28 6 63 6
67 1 95 16 131 74 17 27 17 30 -1 63 -27 51 -147 97 -168 63 -3 -5 -19 -10
-36 -10 -22 0 -29 -5 -29 -20 0 -11 -5 -20 -11 -20 -6 0 -8 -9 -4 -20 4 -12 2
-20 -4 -20 -13 0 -168 315 -211 428 -27 70 -28 74 -13 112 18 45 21 46 49 25
10 -8 32 -15 48 -15 16 0 37 -7 47 -16 16 -14 20 -13 53 8 20 13 36 26 36 29
0 3 -41 9 -91 11 -50 3 -95 10 -101 16 -13 13 43 147 136 327 122 235 251 423
357 518 63 58 82 97 72 148 -10 52 -38 64 -179 77 -109 11 -137 10 -184 -2
-30 -8 -58 -12 -61 -10 -13 8 -108 -91 -138 -143 -16 -28 -44 -85 -61 -125
-40 -92 -50 -102 -50 -55 0 26 4 37 15 37 8 0 15 5 15 10 0 6 -13 10 -30 10
-40 0 -90 45 -99 90 -6 30 -11 35 -39 38 -31 3 -33 6 -30 35 3 30 1 32 -30 35
-18 2 -39 -1 -45 -6 -7 -5 -21 -7 -32 -5 -11 3 -32 7 -47 10 -23 4 -28 11 -28
34 0 29 -22 40 -35 19 -9 -14 -58 -13 -73 2 -18 18 -14 62 10 107 17 32 19 44
10 53 -9 9 -12 8 -12 -5z m-2939 -312 c-10 -88 -16 -164 -13 -169 2 -4 46 33
97 84 l92 91 52 -86 c29 -47 52 -87 50 -88 -69 -43 -197 -58 -255 -31 -21 10
-47 29 -57 41 -10 13 -22 21 -26 18 -14 -8 -32 47 -40 120 l-8 70 61 57 c33
31 62 56 62 55 1 -1 -6 -74 -15 -162z m-3701 140 c0 -17 -34 -68 -38 -57 -2 7
2 19 8 27 11 13 6 15 -29 15 -22 0 -41 -5 -41 -11 0 -5 5 -7 12 -3 7 5 9 2 5
-9 -4 -11 -2 -14 8 -10 8 3 13 8 10 12 -2 4 2 8 9 8 20 0 7 -35 -15 -42 -11
-4 -32 -6 -47 -5 -15 1 -29 1 -32 0 -3 -1 -15 -3 -27 -4 -18 -2 -22 2 -19 18
2 12 10 19 17 17 8 -2 21 -5 29 -6 8 -2 15 -4 15 -5 0 -1 8 -3 18 -5 19 -4 20
0 7 30 -8 19 -9 19 -9 -3 -1 -13 -5 -21 -11 -17 -5 3 -7 13 -4 23 5 16 5 16
-9 0 -12 -16 -16 -16 -36 -2 -12 9 -25 13 -28 10 -4 -3 -1 -6 7 -6 10 0 10 -3
0 -15 -7 -8 -22 -15 -34 -14 -20 0 -21 1 -1 9 14 6 15 9 4 9 -8 1 -19 -3 -25
-9 -5 -5 -15 -6 -24 0 -11 7 -4 14 30 29 35 15 68 20 148 20 56 1 102 -1 102
-4z m328 -67 c37 -15 41 -34 10 -48 -24 -10 -59 -31 -68 -40 -11 -11 -70 -50
-76 -50 -5 0 -1 48 12 141 l5 37 42 -14 c23 -7 57 -18 75 -26z m7241 28 c-2
-2 -31 -7 -64 -10 -92 -8 -129 -21 -160 -57 -17 -19 -17 -21 -3 -16 10 3 20 1
24 -6 4 -7 4 -9 -1 -5 -4 4 -14 0 -22 -10 -9 -10 -11 -11 -7 -2 4 8 -7 2 -25
-15 -18 -16 -39 -43 -47 -58 -9 -16 -18 -26 -21 -24 -8 8 47 104 76 134 26 25
87 57 126 66 26 6 130 8 124 3z m165 -5 c7 -10 -109 -111 -127 -111 -7 0 -6 5
3 10 8 5 10 10 5 10 -6 0 -37 -18 -70 -41 -140 -94 -264 -175 -317 -205 -51
-29 -58 -31 -58 -15 0 22 9 30 75 66 58 32 256 163 300 199 17 13 27 27 23 31
-3 4 -39 -17 -80 -47 -40 -30 -80 -57 -88 -61 -8 -4 -30 -16 -47 -27 -57 -34
-36 -11 25 27 59 38 157 109 180 131 7 6 18 12 23 12 5 0 9 7 9 15 0 12 14 15
69 15 39 0 72 -4 75 -9z m-7939 -21 c-3 -5 -12 -10 -18 -10 -7 0 -6 4 3 10 19
12 23 12 15 0z m-104 -33 c-12 -31 1 -44 20 -20 10 12 10 14 2 9 -7 -4 -13 -2
-13 3 0 14 4 14 47 -4 41 -17 139 -20 179 -5 15 6 28 9 30 8 1 -2 -2 -49 -9
-105 -8 -74 -8 -123 0 -184 l11 -84 -31 -52 -32 -53 -12 35 c-10 29 -33 165
-33 196 0 17 -19 9 -25 -12 -4 -11 -9 -18 -12 -16 -8 9 35 97 51 103 13 5 27
38 31 77 1 15 -5 17 -48 13 -27 -3 -52 -8 -55 -11 -3 -2 -11 0 -19 6 -7 6 -13
8 -13 4 0 -4 -8 -1 -17 6 -9 8 -14 9 -10 3 3 -6 0 -11 -8 -11 -8 0 -11 5 -8
10 4 6 0 8 -10 4 -9 -3 -20 -1 -24 6 -4 7 -12 -3 -19 -28 -16 -51 -17 -22 -3
47 12 55 27 93 35 85 3 -2 0 -16 -5 -30z m3878 -29 c-14 -26 -7 -125 12 -159
7 -13 12 -27 11 -31 -1 -3 6 -12 16 -20 15 -11 16 -11 7 2 -5 9 0 4 13 -10 19
-21 21 -21 16 -5 -7 19 -6 19 17 -2 52 -47 190 -54 294 -14 l49 19 64 -121 64
-121 -26 -21 c-14 -11 -40 -29 -58 -38 -23 -13 -27 -14 -14 -3 16 13 17 16 4
16 -8 0 -36 -16 -61 -35 -25 -19 -49 -35 -53 -35 -4 0 -14 -9 -24 -20 -15 -17
-19 -18 -30 -5 -16 20 -10 27 70 80 38 25 73 51 76 57 13 21 -40 -5 -100 -49
-68 -50 -62 -52 -113 37 -61 105 -116 190 -123 190 -9 0 -20 -36 -20 -70 0
-14 -5 -32 -11 -40 -7 -11 -9 -4 -6 28 4 36 2 41 -10 30 -11 -9 -16 -9 -22 1
-6 10 -10 9 -14 -4 -6 -14 -10 -14 -34 -1 -61 31 -105 108 -117 202 l-6 51 67
56 c37 32 69 57 71 57 1 0 -3 -10 -9 -22z m1265 -10 c-4 -7 -22 -35 -40 -63
-52 -83 -84 -152 -149 -325 -34 -91 -66 -173 -70 -182 -18 -44 19 -9 106 101
51 66 95 118 96 117 1 -1 -11 -36 -28 -77 -26 -62 -58 -170 -71 -240 -3 -15
-8 -15 -58 2 -30 10 -60 17 -66 15 -15 -6 -78 -202 -69 -216 3 -6 23 -17 43
-26 20 -8 47 -22 59 -29 l22 -15 -25 -55 c-13 -31 -24 -62 -24 -70 0 -19 -17
-19 -70 0 -23 8 -46 15 -50 15 -22 0 -16 -74 16 -196 4 -15 -13 -50 -60 -120
-66 -101 -104 -150 -110 -143 -2 2 -18 35 -36 72 -18 37 -36 70 -40 72 -10 6
-150 -202 -150 -223 0 -10 7 -40 17 -67 l16 -49 -39 -34 c-68 -59 -171 -102
-256 -107 -20 -1 -43 2 -49 6 -7 4 -27 0 -43 -8 -21 -11 6 24 85 108 231 249
250 272 333 403 62 99 70 123 29 84 -69 -64 -243 -155 -363 -189 -109 -31
-110 -27 -24 64 90 95 178 225 205 302 22 64 24 155 5 237 l-14 58 31 33 c46
48 69 78 64 84 -3 2 -28 -19 -55 -47 l-50 -51 -22 46 c-13 26 -19 50 -14 55 5
4 47 29 94 55 47 25 99 57 117 71 17 13 33 24 35 24 2 0 24 -40 48 -90 24 -49
47 -90 50 -90 4 0 14 24 23 54 17 51 20 55 57 61 112 19 247 171 366 412 55
112 75 144 99 156 38 20 38 20 29 5z m667 -54 c-11 -27 -21 -42 -21 -34 -1 8
-6 4 -10 -10 -5 -16 -8 -19 -9 -8 -1 16 51 109 57 103 1 -1 -6 -24 -17 -51z
m1808 -67 c-2 -1 -13 -9 -24 -17 -19 -14 -19 -14 -6 3 7 9 18 17 24 17 6 0 8
-1 6 -3z m251 -6 c0 -5 -6 -14 -14 -20 -8 -6 -39 -51 -70 -99 -40 -61 -68 -94
-93 -108 -20 -10 -41 -23 -47 -29 -35 -32 -151 -99 -199 -115 -20 -6 -44 -19
-53 -28 -15 -15 -16 -13 -9 19 8 38 22 59 39 59 44 0 304 147 306 173 0 4 -17
-3 -37 -16 -21 -13 -83 -44 -138 -71 -55 -26 -108 -51 -117 -57 -22 -11 -22
-13 -2 43 14 42 19 47 82 74 80 33 195 93 277 145 63 40 75 44 75 30z m-2971
-28 c-78 -94 -223 -253 -226 -249 -3 3 5 25 16 50 22 45 191 216 213 216 7 0
5 -7 -3 -17z m831 -108 c-11 -25 -22 -45 -26 -45 -3 0 -4 7 0 15 3 8 -6 36
-20 63 l-25 47 27 22 28 22 17 -40 c18 -38 17 -41 -1 -84z m1810 106 c0 -10
-7 -21 -15 -24 -12 -5 -12 -2 -3 18 13 30 18 31 18 6z m-7445 -17 c11 -1 25
-3 30 -3 6 -1 0 -10 -12 -20 -12 -10 -21 -20 -20 -22 1 -2 0 -3 -2 -2 -2 1
-16 -6 -30 -16 -27 -19 -109 -63 -126 -67 -5 -2 -40 -14 -77 -28 -38 -13 -68
-22 -68 -20 0 3 -9 0 -19 -6 -17 -9 -74 -19 -121 -22 -8 0 -26 -10 -38 -22
-27 -23 -51 -63 -33 -52 6 4 11 1 11 -6 0 -7 16 -36 35 -65 24 -35 40 -50 52
-48 10 2 37 6 60 8 l42 5 -31 -39 -32 -40 -22 28 c-12 15 -25 25 -28 22 -3 -3
-9 -32 -12 -65 -4 -35 -19 -83 -37 -118 -26 -51 -29 -66 -24 -115 6 -55 -24
-195 -68 -320 -8 -24 -15 -51 -14 -60 0 -9 7 2 15 24 24 67 35 63 13 -4 l-22
-64 -34 39 c-18 22 -44 60 -58 85 l-24 46 29 92 c36 116 103 446 86 431 -3 -4
-25 -55 -50 -115 -42 -105 -82 -245 -89 -310 -2 -25 -7 -17 -26 45 -19 60 -22
91 -19 156 7 139 75 252 285 472 73 76 93 92 118 92 17 0 55 9 85 21 30 11 64
23 75 26 11 4 43 21 70 39 39 26 57 31 80 27 17 -4 39 -7 50 -9z m1015 -21 c0
-32 -38 -200 -61 -272 -12 -39 -19 -75 -15 -78 4 -4 10 -3 14 3 8 11 67 54 76
54 3 0 -6 -12 -19 -26 -14 -15 -22 -31 -19 -36 11 -18 15 -105 5 -88 -5 8 -7
18 -4 24 3 5 1 6 -5 2 -7 -4 -12 -5 -12 -2 0 2 -3 13 -7 23 -6 15 -4 16 8 6
13 -10 16 -10 16 2 0 8 -4 12 -9 9 -4 -3 -5 2 -2 10 3 9 1 16 -5 16 -6 0 -10
-6 -8 -12 1 -7 -3 -12 -9 -11 -6 1 -10 -14 -9 -36 1 -22 -5 -43 -13 -51 -13
-12 -14 -7 -9 37 5 40 3 53 -9 57 -8 3 -13 2 -10 -3 5 -7 -10 -68 -20 -79 -1
-2 -11 4 -21 12 -10 9 -37 33 -61 54 -24 20 -64 69 -89 107 -26 39 -56 81 -68
95 -12 14 -25 34 -29 45 -6 17 -4 17 18 -4 14 -14 28 -23 30 -20 2 2 11 27 20
55 18 57 15 55 206 104 97 24 120 25 120 3z m2643 -73 c7 0 36 -27 64 -59 l53
-59 -36 0 c-20 0 -40 -6 -45 -13 -5 -8 -9 -10 -9 -5 0 5 -6 3 -14 -3 -11 -9
-16 -9 -22 0 -5 9 -11 7 -22 -7 -13 -17 -14 -10 -8 61 4 44 10 103 14 130 l7
50 3 -47 c2 -29 8 -48 15 -48z m2523 63 c-2 -10 -8 -43 -12 -73 -7 -54 -7 -54
-15 -20 -22 110 -22 110 6 110 20 0 25 -4 21 -17z m-3161 -29 c20 -49 19 -69
-11 -186 -34 -135 -142 -406 -144 -360 0 6 -6 12 -13 12 -21 0 -150 140 -177
193 -26 48 -34 55 -45 36 -24 -38 87 -179 209 -265 18 -12 18 -15 -14 -63 -35
-56 -44 -64 -30 -26 8 22 6 26 -26 41 -20 10 -42 17 -50 17 -8 0 -14 4 -14 9
0 4 -7 8 -15 8 -8 0 -15 6 -15 13 0 9 -2 9 -9 -1 -6 -11 -10 -10 -15 4 -10 27
-21 6 -22 -45 0 -26 -6 -56 -12 -66 -9 -16 -10 -10 -5 31 7 61 -6 89 -44 99
-15 3 -31 12 -35 18 -5 8 -8 6 -8 -5 0 -11 -8 -18 -18 -18 -23 0 -177 -52
-219 -73 -37 -20 -40 -36 -49 -247 l-7 -156 -76 -32 c-74 -32 -220 -73 -233
-66 -15 9 18 77 52 108 l37 34 6 133 c5 125 8 138 36 192 29 54 38 67 69 102
15 17 16 26 1 22 -6 -1 -14 5 -16 13 -3 9 -1 11 4 5 14 -18 36 -12 86 23 60
42 61 51 1 18 -25 -14 -50 -23 -55 -20 -5 3 -6 -2 -3 -11 5 -11 2 -14 -10 -9
-9 3 -14 9 -11 13 2 4 -2 8 -10 8 -8 0 -14 -3 -13 -6 0 -3 0 -15 -2 -26 l-1
-20 -9 20 c-8 19 -9 19 -9 -2 -1 -12 -15 -44 -32 -72 -27 -43 -34 -49 -47 -38
-13 10 -14 9 -3 -11 10 -19 10 -27 -2 -40 -22 -25 -31 -62 -15 -62 7 0 -5 -12
-27 -26 -22 -15 -46 -34 -52 -42 -7 -9 -15 -13 -19 -10 -8 9 65 282 76 286 11
4 98 63 132 90 45 35 160 148 170 165 8 17 7 17 -12 7 -12 -6 -24 -18 -27 -26
-3 -7 -9 -12 -13 -9 -5 3 -11 -3 -14 -12 -3 -10 -48 -48 -99 -86 -50 -37 -97
-72 -104 -77 -7 -6 -15 -10 -19 -10 -5 0 -33 -21 -82 -61 -11 -9 -13 -4 -10
22 2 21 10 37 23 44 11 5 45 25 75 43 92 54 142 105 57 57 -101 -56 -137 -73
-137 -64 0 5 7 26 15 47 14 34 26 43 103 80 87 43 192 104 310 181 34 22 62
39 62 37 0 -2 -7 -20 -15 -40 -20 -46 -14 -56 29 -46 46 10 53 16 75 58 23 45
78 97 109 105 12 3 22 3 22 2 0 -7 -61 -108 -91 -152 l-29 -42 21 -12 c31 -16
115 -6 147 18 16 12 48 63 76 121 l50 101 50 11 c184 37 173 37 191 -6z m3081
-27 c2 -72 23 -145 36 -126 10 15 6 -11 -14 -86 l-11 -40 -38 79 c-21 43 -43
102 -50 132 -8 34 -17 54 -26 54 -24 0 -4 19 30 29 67 19 72 16 73 -42z
m-5524 28 c3 -3 -10 -22 -28 -42 -19 -20 -34 -42 -34 -47 -1 -9 -134 -100
-135 -93 0 1 1 35 3 75 3 59 7 74 23 83 37 19 158 36 171 24z m6208 -24 c37
-8 66 -21 88 -42 38 -36 102 -65 159 -75 39 -6 43 -10 57 -52 9 -25 16 -50 16
-55 0 -5 -60 -7 -136 -6 l-136 3 -33 50 c-19 28 -50 63 -69 79 -22 16 -39 42
-45 65 -16 57 -15 62 17 53 15 -5 52 -14 82 -20z m-1688 10 c13 -5 35 -12 49
-15 25 -6 26 -8 19 -43 -5 -21 -12 -58 -15 -83 -3 -25 -21 -113 -39 -195 -29
-130 -31 -151 -19 -161 12 -8 4 -10 -32 -7 -44 3 -98 23 -108 41 -3 4 7 59 22
123 16 63 34 153 41 200 8 49 22 97 34 116 12 18 22 33 23 33 1 0 12 -4 25 -9z
m293 -20 c-126 -47 -148 -51 -167 -34 -30 27 -21 33 60 34 42 0 86 4 97 9 11
5 29 9 40 9 11 0 -2 -8 -30 -18z m53 -45 c-13 -20 -29 -34 -35 -31 -7 2 -13 1
-13 -3 0 -8 -43 -28 -81 -37 -17 -4 -30 -1 -39 10 -10 12 -15 13 -21 3 -10
-16 -21 -5 -14 13 5 14 114 59 178 75 15 3 30 11 34 17 5 8 8 8 10 0 2 -6 -6
-28 -19 -47z m509 -20 c34 -40 73 -96 87 -124 24 -47 24 -50 6 -45 -11 3 -20
9 -20 14 0 5 -9 9 -19 9 -11 0 -21 3 -23 8 -1 4 -29 24 -60 46 -64 43 -131
112 -126 128 3 9 53 30 88 37 3 1 33 -32 67 -73z m-3600 36 c-22 -24 -103 -69
-92 -51 9 15 -53 -30 -95 -68 -35 -32 -39 -19 -5 17 38 40 99 81 149 101 55
22 62 22 43 1z m183 4 c0 -2 -7 -9 -15 -16 -13 -11 -14 -10 -9 4 5 14 24 23
24 12z m-1906 -112 c49 -105 97 -166 169 -221 34 -25 65 -49 70 -53 7 -6 -29
-100 -38 -100 -2 0 0 14 5 30 5 17 5 28 0 25 -5 -3 -11 -1 -15 5 -4 6 -11 8
-16 5 -5 -4 -9 -1 -9 4 0 6 -7 11 -15 11 -8 0 -15 6 -15 13 0 9 -2 9 -9 -1 -6
-11 -10 -10 -15 4 -3 9 -9 14 -13 11 -3 -4 -12 1 -20 11 -9 10 -11 11 -7 2 7
-13 5 -13 -9 -1 -9 7 -14 17 -11 22 3 5 -2 6 -10 3 -9 -3 -13 -11 -9 -18 4 -6
-1 -5 -10 3 -18 14 -23 26 -8 16 5 -3 12 -2 15 3 2 4 -6 8 -19 8 -13 0 -22 -3
-20 -7 3 -3 -4 -14 -14 -23 -18 -17 -20 -17 -32 6 -21 37 -25 235 -6 281 9 20
18 37 20 37 3 0 21 -34 41 -76z m5163 -4 c81 -81 182 -141 260 -156 38 -7 40
-18 14 -76 -33 -75 -103 -240 -131 -313 -16 -38 -46 -110 -68 -159 l-40 -89
-16 32 c-20 37 -31 41 -22 6 12 -46 -25 -169 -100 -330 -41 -87 -74 -165 -74
-172 0 -16 15 -17 41 -3 24 13 24 18 -11 -136 -16 -71 -30 -139 -30 -152 0
-12 -6 -24 -12 -26 -40 -12 -139 -32 -142 -29 -4 4 36 148 128 463 35 118 78
272 96 343 18 70 37 127 43 127 5 0 6 -8 3 -17 -4 -10 -4 -14 0 -10 4 3 15 -3
25 -15 27 -30 23 -15 -6 32 -14 22 -25 41 -25 44 0 6 220 390 229 399 5 5 25
1 46 -7 44 -19 45 -19 45 -6 0 5 -19 15 -42 22 -63 18 -205 117 -270 188 -53
57 -56 63 -46 90 5 17 13 30 18 30 4 0 43 -36 87 -80z m-4544 40 c28 -14 28
-15 22 -74 -8 -72 -20 -91 -30 -47 -4 17 -10 29 -15 26 -9 -6 3 -55 22 -89 7
-13 7 -64 2 -150 -4 -72 -9 -123 -12 -113 -2 9 -8 15 -13 12 -5 -4 -9 -1 -9 4
0 6 -5 11 -11 11 -5 0 -7 -4 -4 -10 3 -5 -2 -10 -11 -10 -10 0 -27 -8 -38 -17
-12 -10 -1 3 23 29 25 27 41 52 38 61 -3 8 -27 17 -59 21 -145 20 -193 32
-196 50 -3 13 0 16 9 11 8 -6 10 -4 3 6 -4 8 -10 23 -11 34 -3 15 1 13 16 -9
11 -17 18 -33 16 -36 -2 -4 1 -7 8 -8 7 -1 35 -8 62 -15 28 -8 51 -14 53 -12
8 7 -12 34 -21 28 -6 -3 -7 -1 -3 6 4 6 3 17 -3 24 -11 15 -20 51 -28 123 l-5
51 78 56 c44 31 81 55 84 54 3 -2 18 -9 33 -17z m3117 10 c0 -5 -2 -10 -4 -10
-3 0 -8 5 -11 10 -3 6 -1 10 4 10 6 0 11 -4 11 -10z m-4343 -101 c32 -97 32
-100 16 -135 l-17 -35 -38 80 c-31 67 -36 84 -28 111 5 17 6 30 2 28 -97 -49
-181 -88 -197 -91 -11 -1 -24 -5 -30 -9 -21 -12 -78 -20 -71 -10 3 6 19 13 34
17 15 3 86 37 157 75 72 38 132 69 135 69 3 0 20 -45 37 -100z m487 -19 c-1
-135 13 -226 44 -285 18 -37 132 -155 150 -155 4 -1 17 -9 30 -19 18 -16 21
-24 12 -45 l-10 -26 -51 25 c-28 14 -77 52 -108 83 -57 55 -58 59 -57 107 1
35 -5 60 -18 80 -11 17 -21 37 -22 45 -1 8 -8 44 -15 80 -11 51 -14 58 -17 34
-2 -17 4 -50 12 -74 8 -25 13 -46 11 -48 -7 -7 -45 19 -40 28 3 5 1 19 -6 31
-9 18 -4 40 37 140 26 66 48 119 48 119 1 0 1 -54 0 -120z m7033 -30 c-34 -69
-70 -147 -81 -173 -31 -81 -28 -46 8 94 28 104 41 137 58 149 12 8 34 25 48
37 14 12 26 21 27 20 1 -1 -26 -58 -60 -127z m-3147 95 c0 -8 -2 -15 -4 -15
-2 0 -6 7 -10 15 -3 8 -1 15 4 15 6 0 10 -7 10 -15z m-4301 -40 c0 -5 -4 -3
-9 5 -5 8 -9 22 -9 30 0 16 17 -16 18 -35z m-304 25 c-3 -5 -14 -10 -23 -9
-14 0 -13 2 3 9 27 11 27 11 20 0z m1795 -65 c61 -62 78 -87 31 -46 -23 20
-89 19 -103 -3 -6 -8 -8 -7 -8 2 0 25 -20 0 -21 -26 -1 -46 -15 4 -22 76 l-5
62 32 0 c26 0 44 -12 96 -65z m2275 -10 c-7 -69 -23 -134 -24 -101 -1 16 -3
17 -18 5 -9 -8 -18 -13 -20 -11 -10 7 -23 0 -17 -10 4 -7 3 -8 -5 -4 -6 4 -18
2 -26 -4 -8 -7 -15 -9 -15 -5 0 5 -10 0 -22 -11 -12 -10 -19 -14 -16 -9 3 6
-4 10 -17 10 -13 0 -23 -4 -22 -10 1 -5 -9 -9 -23 -10 -16 0 -29 -9 -37 -25
-12 -24 -13 -24 -12 15 0 22 3 57 7 79 7 37 8 39 87 65 86 29 160 64 170 81
14 23 17 7 10 -55z m1807 28 c-45 -58 -48 -82 -4 -33 l38 43 47 -41 c26 -23
68 -55 92 -72 25 -17 45 -38 45 -46 0 -37 -100 -204 -122 -204 -3 0 -8 26 -12
58 -11 97 -43 130 -89 93 -14 -12 -23 -12 -57 -1 -46 15 -46 9 1 130 27 69 57
110 81 110 5 0 -4 -17 -20 -37z m-5449 -95 c-34 -35 -39 -37 -50 -21 -17 22
-17 20 18 81 l30 54 20 -37 20 -38 -38 -39z m2845 52 c-12 -29 -32 -44 -23
-17 19 53 28 70 32 59 3 -6 -1 -26 -9 -42z m-3159 -10 c-13 -23 -36 -47 -54
-54 -57 -26 -118 -47 -121 -43 -3 2 -1 21 3 41 8 36 11 38 92 66 46 16 86 32
89 35 16 16 11 -9 -9 -45z m7547 23 c-3 -10 -7 -29 -10 -43 -3 -14 -10 -52
-16 -85 -21 -112 -69 -294 -85 -326 -9 -17 -14 -37 -12 -44 3 -7 -7 -61 -23
-121 -15 -60 -36 -149 -46 -198 l-17 -90 -21 42 c-11 23 -23 42 -28 42 -10 0
-38 -56 -83 -172 -21 -54 -40 -97 -41 -95 -5 5 78 313 149 557 37 124 82 288
102 365 20 76 37 139 38 140 1 0 22 10 47 23 54 26 53 26 46 5z m-1358 -44
c-3 -8 -7 -3 -11 10 -4 17 -3 21 5 13 5 -5 8 -16 6 -23z m1043 -1 c6 -24 4
-26 -40 -36 -25 -6 -81 -19 -124 -30 -75 -19 -78 -19 -87 -1 -17 31 -12 36 48
48 31 6 84 20 117 30 72 23 77 22 86 -11z m-1767 -3 c3 -9 0 -15 -9 -15 -8 0
-15 -5 -15 -12 0 -6 -3 -9 -6 -5 -8 7 5 47 16 47 4 0 10 -7 14 -15z m1926
-140 c-23 -82 -51 -185 -65 -230 -94 -316 -158 -534 -178 -615 -39 -153 -39
-152 -26 -145 8 5 9 0 4 -16 -9 -30 -10 -30 -67 -64 l-48 -27 0 24 c0 39 29
188 53 278 13 47 65 220 115 386 51 166 92 307 92 314 0 8 13 41 29 74 15 34
36 82 45 107 13 37 23 48 49 56 18 5 33 9 34 8 2 -1 -15 -68 -37 -150z m-5879
135 c5 0 9 -15 9 -34 0 -80 67 -532 109 -736 11 -52 18 -97 16 -99 -2 -2 -18
2 -36 8 -17 6 -42 8 -55 5 -29 -7 -69 33 -84 85 -17 60 -42 262 -38 307 1 23
0 40 -4 37 -5 -2 -7 65 -6 149 1 110 3 139 9 103 7 -48 7 -47 5 18 -1 41 2 67
9 67 5 0 3 5 -5 10 -8 5 -10 10 -4 10 6 0 10 12 9 28 -1 29 22 54 43 47 8 -3
18 -5 23 -5z m285 -48 c-9 -9 -37 8 -31 18 5 8 11 7 21 -1 8 -6 12 -14 10 -17z
m-1857 -46 c-11 -20 -27 -36 -35 -36 -8 0 -22 -4 -32 -9 -9 -6 -32 -17 -50
-25 -30 -14 -33 -14 -28 2 2 9 7 29 10 43 5 22 16 29 68 44 35 10 67 22 73 27
19 17 16 -10 -6 -46z m7302 -7 c-5 -24 -12 -55 -15 -69 -9 -46 -14 -65 -40
-157 -14 -51 -26 -100 -26 -109 0 -32 -17 -1 -75 138 -46 111 -55 141 -46 152
7 8 19 12 27 9 8 -3 14 0 14 7 0 9 -11 10 -35 6 -28 -6 -35 -4 -35 9 0 8 5 16
10 16 6 1 13 2 18 3 4 1 39 6 77 10 39 4 78 12 88 17 12 7 17 6 17 -3 0 -7 5
-5 11 5 17 28 21 14 10 -34z m-5403 23 c2 -6 -20 -18 -49 -26 -84 -25 -101
-18 -34 14 62 29 76 32 83 12z m2098 -28 c-4 -14 -9 -24 -12 -21 -3 2 -2 17 2
31 3 15 9 25 11 22 3 -3 2 -17 -1 -32z m-3193 -2 c14 -15 14 -19 3 -19 -8 0
-14 5 -13 11 1 6 -4 10 -11 8 -8 -1 -11 2 -7 8 8 13 9 13 28 -8z m-523 1 c0
-5 -7 -17 -15 -27 -15 -20 -20 -10 -9 18 6 16 24 22 24 9z m494 -21 c3 -5 -1
-9 -9 -9 -8 0 -12 4 -9 9 3 4 7 8 9 8 2 0 6 -4 9 -8z m1160 -23 c3 -17 3 -35
0 -40 -6 -11 -184 -66 -241 -75 -38 -6 -43 -4 -43 12 0 11 -3 35 -6 56 l-6 36
64 1 c59 0 183 23 196 35 14 15 30 3 36 -25z m2030 16 c-4 -8 -10 -15 -14 -15
-5 0 -17 -3 -27 -6 -10 -3 -4 3 12 15 36 25 36 25 29 6z m1375 -34 c-7 -23
-14 -39 -16 -37 -3 2 1 23 8 45 7 23 14 39 16 37 3 -2 -1 -23 -8 -45z m506 29
c-10 -11 -22 -17 -27 -14 -12 8 11 34 30 34 13 0 12 -3 -3 -20z m-5327 -37 c6
-15 12 -33 12 -40 0 -7 -6 -13 -12 -13 -8 0 -9 -3 -3 -8 10 -7 17 -27 18 -49
0 -6 7 -9 15 -5 10 3 13 1 8 -6 -3 -6 -1 -14 5 -18 8 -4 9 -3 5 4 -4 7 -3 12
3 12 5 0 13 -5 17 -12 5 -7 11 -5 21 7 26 37 14 -13 -33 -136 -44 -113 -48
-118 -62 -98 -12 17 -21 20 -48 14 -37 -7 -45 6 -19 32 12 12 13 18 4 29 -6 8
-18 14 -26 14 -10 0 -12 6 -8 19 4 14 0 21 -13 25 -21 7 -26 36 -5 36 7 0 13
9 13 21 0 11 5 30 11 41 9 16 8 24 -5 36 -14 14 -13 18 7 38 34 34 49 54 40
54 -9 1 27 30 36 30 3 0 12 -12 19 -27z m3465 -23 c-25 -23 -243 -87 -243 -71
0 3 47 26 105 50 58 24 113 50 122 57 16 11 18 10 21 -8 2 -11 0 -24 -5 -28z
m-93 35 c0 -5 -80 -45 -92 -45 -4 0 -8 5 -8 12 0 6 3 9 6 5 3 -3 24 3 47 13
50 22 47 21 47 15z m-153 -62 c-3 -10 -5 -2 -5 17 0 19 2 27 5 18 2 -10 2 -26
0 -35z m-1792 -29 c0 -23 -8 -29 -65 -50 -36 -13 -74 -28 -85 -33 -11 -5 -38
-13 -60 -16 -22 -4 -45 -11 -52 -16 -8 -7 -13 -1 -18 21 -4 17 -5 32 -3 33 19
11 248 85 263 86 16 1 21 -5 20 -25z m2035 -26 c0 -18 -4 -39 -8 -45 -7 -12
-139 -63 -161 -63 -11 0 -55 69 -48 76 2 3 38 13 78 23 41 10 85 23 99 29 37
16 40 15 40 -20z m-1954 -103 l-15 -70 5 75 c3 41 8 84 12 95 14 43 13 -30 -2
-100z m-1085 58 c-11 -21 -20 -35 -21 -31 0 12 33 78 38 74 2 -2 -6 -21 -17
-43z m184 7 c-3 -5 -20 -19 -38 -31 l-32 -22 29 31 c28 30 55 44 41 22z m850
-285 c-79 -283 -155 -624 -155 -696 0 -20 -23 -52 -86 -124 -47 -53 -88 -94
-90 -92 -8 8 24 199 51 302 23 89 30 104 65 135 l39 35 -15 63 c-9 41 -11 68
-5 75 11 14 121 399 147 515 l19 82 22 -123 c20 -110 20 -127 8 -172z m-1617
273 c-2 -6 -10 -14 -16 -16 -7 -2 -10 2 -6 12 7 18 28 22 22 4z m2342 7 c0
-14 -75 -138 -86 -142 -8 -3 -14 -10 -14 -17 0 -6 -11 -24 -23 -40 l-23 -29
-27 23 c-23 20 -27 32 -27 75 0 51 12 75 38 75 8 0 20 7 27 16 14 20 135 55
135 39z m-780 -13 c0 -11 -79 -297 -121 -440 l-33 -114 -18 69 c-23 92 -22
107 11 236 17 62 35 140 42 174 11 62 12 62 53 72 55 12 66 13 66 3z m-1230
-32 c10 0 35 -13 57 -29 53 -39 119 -72 127 -64 11 11 7 -13 -8 -43 -7 -16
-40 -89 -71 -161 -32 -73 -59 -132 -60 -130 -1 1 0 69 3 150 l5 149 52 -7 c32
-4 56 -2 59 4 4 5 -18 12 -51 17 -32 4 -78 13 -103 20 -25 8 -54 14 -65 14
-20 -1 -20 -1 -1 -15 11 -8 26 -15 35 -15 8 0 23 -7 33 -17 15 -14 18 -32 18
-134 0 -157 -20 -253 -75 -367 -25 -50 -45 -99 -45 -107 0 -17 25 -20 35 -5 3
6 17 10 31 10 l25 0 -36 -46 c-41 -55 -49 -86 -13 -51 32 31 88 68 88 59 0
-13 -84 -73 -106 -76 -8 -1 -20 -11 -28 -22 -13 -17 -12 -23 5 -50 l19 -31
-75 -16 c-111 -25 -117 -24 -111 16 8 44 14 75 20 95 3 9 7 29 10 45 3 15 8
36 11 47 4 13 -4 32 -26 60 -32 40 -49 50 -49 29 0 -5 4 -7 10 -4 5 3 12 -4
14 -17 7 -32 4 -58 -5 -53 -4 3 -5 15 -3 28 4 20 4 20 -5 2 -5 -12 -5 -28 2
-40 9 -18 9 -19 -8 -5 -17 14 -17 14 -7 -7 9 -16 9 -24 0 -29 -7 -5 -8 -3 -3
6 5 9 4 11 -4 6 -9 -6 -9 -11 1 -24 10 -13 10 -14 0 -8 -9 6 -11 1 -8 -18 3
-15 1 -24 -4 -21 -4 3 -11 -2 -14 -11 -3 -8 -2 -13 2 -10 5 3 9 -1 9 -9 0 -8
-5 -11 -10 -8 -6 4 -8 -3 -5 -15 4 -12 3 -20 -2 -17 -4 3 -11 -17 -15 -43 -4
-26 -11 -55 -16 -64 -7 -13 -6 -18 3 -19 10 0 10 -2 0 -6 -6 -2 -10 -9 -6 -14
3 -5 -1 -9 -8 -9 -9 0 -9 -3 2 -10 8 -5 10 -10 4 -10 -6 0 -11 -6 -12 -12 -1
-7 -3 -24 -4 -38 -2 -14 -7 -28 -13 -32 -6 -5 -4 -8 5 -8 13 0 13 -2 1 -9 -8
-5 -16 -20 -17 -33 -2 -13 0 -17 2 -10 3 6 10 12 16 12 7 0 7 -4 0 -13 -11
-13 -11 -42 1 -53 3 -4 2 -14 -3 -24 -5 -10 -7 -20 -5 -24 3 -3 0 -2 -7 3 -8
8 -8 14 1 25 8 10 9 16 1 21 -6 3 -8 10 -5 15 3 5 1 11 -4 14 -5 4 -7 -8 -5
-26 4 -25 2 -29 -5 -18 -6 8 -11 10 -11 5 0 -20 29 -52 62 -69 37 -18 70 -38
78 -46 22 -22 105 -50 149 -50 56 0 158 40 218 86 18 14 33 21 33 17 0 -4 5
-37 10 -73 5 -36 11 -89 14 -118 3 -30 9 -59 13 -64 3 -6 -2 -17 -12 -24 -9
-7 -32 -27 -51 -43 l-33 -31 -78 78 c-43 43 -116 105 -163 139 -90 63 -251
153 -275 153 -25 0 -25 15 1 121 112 466 189 708 282 891 10 20 48 108 83 197
41 103 67 157 73 151 6 -6 17 -10 26 -10z m3040 -21 c7 -13 5 -18 -10 -22 -17
-4 -20 0 -20 31 0 38 4 36 30 -9z m-2392 18 l72 1 0 -31 0 -32 -78 1 c-73 1
-158 11 -174 20 -3 2 -9 0 -13 -6 -3 -5 -16 -15 -28 -21 -13 -7 -4 8 22 35 43
44 47 45 85 38 23 -4 74 -6 114 -5z m2627 -49 c-5 -24 -10 -38 -12 -31 -3 8
-17 6 -48 -7 l-44 -19 -21 26 c-11 14 -19 28 -17 30 6 5 142 49 145 46 2 -1 1
-21 -3 -45z m-2225 -4 c-5 -16 -16 -56 -23 -89 l-14 -60 -12 66 c-16 96 -16
99 19 99 17 0 30 5 30 12 0 6 2 9 5 7 2 -3 0 -19 -5 -35z m1003 18 c-3 -12 9
-30 36 -55 23 -20 46 -37 51 -37 16 0 12 -17 -12 -45 l-23 -26 -52 43 c-28 24
-52 46 -52 51 -1 8 47 87 53 87 2 0 2 -8 -1 -18z m3106 -136 c-54 -197 -106
-380 -161 -561 -105 -349 -149 -536 -154 -655 l-4 -105 31 -27 c45 -39 24 -35
-38 8 -43 29 -53 42 -53 64 0 16 -10 53 -21 84 l-22 55 22 93 c12 51 46 174
76 273 30 99 84 286 121 415 36 129 89 297 117 372 l51 137 27 -41 27 -40 -19
-72z m-2938 127 c-6 -10 -22 -31 -36 -48 -23 -27 -25 -28 -14 -5 11 24 48 70
56 70 2 0 -1 -8 -6 -17z m2076 -71 c-6 -34 -16 -61 -22 -59 -5 2 -10 8 -10 13
1 12 39 114 42 111 1 -2 -3 -31 -10 -65z m-1188 -16 l33 -63 -16 -56 c-53
-187 -47 -173 -63 -151 -8 10 -23 35 -33 55 -17 33 -18 40 -4 90 20 73 34 98
56 105 10 3 16 10 12 15 -3 6 -13 7 -23 4 -9 -4 -28 -11 -43 -15 -27 -8 -28
-7 -28 24 0 29 5 35 33 44 17 5 34 10 37 11 3 0 20 -28 39 -63z m-2759 -5 c0
-33 -4 -39 -37 -55 l-38 -18 20 23 c11 13 22 26 25 29 6 6 11 27 13 52 2 32
17 6 17 -31z m368 24 c-8 -9 -244 -24 -284 -18 -79 10 -46 20 74 21 64 0 137
4 162 9 38 8 62 2 48 -12z m-1353 -15 c20 -29 20 -29 28 -7 8 21 10 20 33 -18
37 -62 28 -105 -12 -52 -14 19 -15 19 -9 2 30 -75 4 -277 -77 -578 -20 -77
-21 -78 -41 -60 -28 25 -167 192 -167 201 0 5 6 14 13 21 8 10 8 12 0 7 -8 -4
-10 2 -6 21 3 16 6 33 6 40 0 7 3 10 7 8 3 -2 5 20 5 48 -2 52 9 82 26 71 5
-3 9 -1 9 4 0 16 -13 22 -25 12 -8 -7 -12 -5 -12 5 0 7 3 14 6 13 18 -2 21 4
10 25 -9 17 -9 19 0 11 7 -6 14 -19 15 -29 3 -20 36 -30 36 -12 0 7 4 6 10 -3
5 -9 5 -19 0 -26 -6 -6 -6 -15 -2 -19 4 -5 1 -5 -5 -1 -8 4 -11 2 -10 -6 2 -7
2 -10 0 -5 -3 4 -10 7 -16 7 -5 0 -7 -3 -4 -6 4 -4 -3 -20 -14 -35 -11 -16
-17 -34 -14 -39 4 -6 3 -16 -3 -23 -14 -19 -23 -49 -12 -42 6 3 10 13 10 21 0
8 4 13 9 9 5 -3 8 8 6 24 -3 26 -1 29 17 26 17 -4 19 -2 10 7 -18 18 -14 32 5
17 9 -8 14 -9 10 -3 -3 6 8 28 26 49 18 22 26 36 19 32 -6 -5 -12 -4 -12 2 0
13 -41 52 -49 46 -4 -2 -8 6 -8 18 -1 12 1 17 5 11 4 -6 24 -23 46 -38 48 -32
71 -23 86 34 10 37 1 166 -16 223 -9 31 38 21 61 -13z m3898 -42 c-3 -38 -8
-68 -12 -68 -7 0 -65 100 -59 104 8 6 73 35 74 33 1 -1 0 -32 -3 -69z m2260
29 c-3 -5 -11 -6 -18 -3 -8 3 -16 0 -18 -7 -3 -7 -4 -2 -4 10 1 15 5 19 11 13
6 -6 15 -10 20 -10 6 0 5 5 -2 12 -7 7 -12 16 -12 22 0 5 6 1 14 -9 8 -11 12
-24 9 -28z m57 37 c0 -2 -9 -8 -19 -13 -13 -8 -22 -7 -29 2 -8 9 -3 13 19 13
16 1 29 0 29 -2z m1269 -88 c32 -85 36 -113 6 -46 l-18 41 -13 -37 c-11 -32
-25 -94 -30 -129 0 -5 -4 -17 -8 -26 -4 -8 -8 -39 -10 -68 -2 -28 -6 -55 -10
-58 -3 -3 0 -13 7 -21 10 -13 9 -14 -2 -7 -11 6 -13 4 -8 -9 4 -10 7 -22 7
-27 0 -6 4 -7 10 -4 6 4 7 -1 3 -12 -6 -16 -5 -17 13 -3 15 11 16 11 7 0 -15
-17 -17 -34 -3 -25 5 3 7 0 4 -8 -3 -8 2 -14 11 -14 13 0 19 9 17 28 -1 3 5 6
13 6 8 0 12 -4 9 -9 -3 -4 0 -8 6 -8 6 0 8 -5 4 -11 -5 -8 -9 -8 -14 1 -5 8
-9 7 -14 -5 -3 -9 -10 -14 -15 -11 -5 3 -7 -3 -4 -14 3 -11 9 -22 13 -25 8 -5
28 14 29 28 1 10 16 9 16 -2 0 -5 4 -13 8 -18 5 -4 8 -3 7 2 -1 6 -1 13 0 18
1 4 3 17 4 30 1 12 7 21 14 19 7 -1 11 1 11 5 -3 21 3 24 18 12 13 -12 13 -9
-3 16 -14 23 -15 27 -3 17 13 -10 19 -9 29 3 7 8 16 12 21 9 5 -3 6 2 3 11 -6
14 -8 14 -19 -1 -9 -14 -14 -14 -20 -4 -6 9 -4 11 4 6 8 -5 11 -3 9 6 -8 34
44 18 61 -18 10 -24 5 -41 -57 -169 l-69 -144 -86 179 -85 179 18 93 c20 103
71 310 75 306 2 -2 17 -39 34 -82z m-4809 9 c25 -15 47 -29 49 -31 2 -2 -11
-21 -30 -42 -19 -21 -44 -52 -56 -68 l-22 -29 0 38 c-1 33 2 37 24 37 42 0 28
16 -26 28 -59 14 -73 9 -41 -14 32 -22 30 -89 -3 -134 -26 -35 -26 -52 0 -30
9 7 17 11 20 8 2 -2 -1 -38 -8 -79 l-13 -74 -79 -28 c-44 -15 -84 -32 -88 -36
-8 -8 40 -142 79 -224 l16 -34 -48 -84 c-58 -102 -130 -274 -146 -350 -10 -51
-14 -56 -49 -67 -20 -6 -56 -14 -79 -18 l-43 -7 7 54 c3 30 9 107 13 172 l6
118 56 -1 c31 -1 59 -1 63 -1 4 1 -7 43 -26 94 -18 50 -41 126 -51 167 -10 41
-21 79 -25 83 -4 5 -21 2 -38 -7 -17 -9 -34 -16 -37 -16 -4 0 38 47 92 106 54
58 110 129 125 159 15 29 41 63 58 75 36 25 173 180 213 241 16 23 32 38 35
32 4 -6 27 -23 52 -38z m-3045 -104 c-46 -126 -64 -166 -65 -144 0 7 23 68 50
137 28 69 50 131 51 138 0 7 3 8 5 3 2 -6 -16 -66 -41 -134z m1603 120 c7 -1
5 -8 -7 -20 -10 -10 -31 -41 -47 -67 -15 -27 -59 -101 -98 -164 -39 -63 -84
-142 -102 -176 l-31 -61 -7 65 -6 66 97 161 c53 88 102 170 109 181 10 17 21
21 46 19 18 -2 39 -4 46 -4z m4872 -1 c0 -5 -5 -10 -11 -10 -5 0 -7 5 -4 10 3
6 8 10 11 10 2 0 4 -4 4 -10z m-5021 -22 c-27 -54 -155 -257 -161 -258 -4 0
-10 21 -14 48 -3 26 -10 54 -15 63 -9 17 7 39 28 39 7 0 21 8 31 18 11 9 33
25 50 34 28 15 31 21 26 47 -6 30 -5 31 30 31 35 0 36 -1 25 -22z m5211 -75
c7 -43 15 -90 17 -105 3 -17 1 -28 -6 -28 -6 0 -11 8 -11 18 0 9 -5 24 -10 32
-8 13 -12 12 -25 -7 -9 -13 -22 -23 -29 -23 -14 0 -79 -91 -71 -98 2 -3 21 9
42 25 52 41 64 47 57 30 -5 -14 -90 -72 -105 -72 -5 0 -15 -9 -23 -20 -12 -17
-12 -23 1 -49 12 -23 12 -30 2 -37 -8 -4 -15 -7 -16 -5 -3 2 -39 192 -49 261
-5 28 -1 33 65 72 70 42 88 45 71 13 -7 -12 -5 -29 4 -50 l13 -32 7 32 c3 18
6 42 6 54 0 23 26 66 39 66 5 0 14 -35 21 -77z m-5837 52 c-3 -9 -8 -14 -10
-11 -3 3 -2 9 2 15 9 16 15 13 8 -4z m3187 11 c0 -3 -4 -8 -10 -11 -5 -3 -10
-1 -10 4 0 6 5 11 10 11 6 0 10 -2 10 -4z m-4300 -43 c-1 -27 -1 -27 -15 -9
-19 25 -19 36 0 36 10 0 15 -10 15 -27z m4493 -54 l27 -46 -32 -121 -31 -122
-38 69 -39 69 33 115 c35 124 30 122 80 36z m-1883 23 c0 -16 7 -51 15 -78 14
-48 14 -48 -4 -25 -10 14 -18 18 -18 10 -1 -8 -15 -66 -33 -129 -17 -63 -33
-129 -35 -145 -2 -17 -10 -49 -18 -72 -10 -31 -11 -45 -3 -54 8 -9 8 -10 -3
-4 -11 6 -13 4 -8 -8 4 -10 1 -17 -6 -18 -9 0 -9 -2 0 -6 9 -3 10 -10 4 -21
-5 -9 -7 -25 -6 -34 2 -10 -1 -20 -5 -23 -10 -6 -2 -96 10 -108 4 -5 11 -3 15
4 5 7 4 10 -3 5 -12 -7 -10 20 3 31 4 4 5 3 2 -3 -4 -7 0 -17 8 -24 8 -7 14
-27 14 -44 l-2 -31 -7 35 c-4 19 -8 27 -9 17 -1 -12 -5 -16 -13 -11 -10 6 -10
5 -1 -8 7 -8 10 -18 6 -21 -6 -6 4 -9 23 -6 4 0 11 -5 15 -13 5 -7 6 3 2 25
-3 23 -2 37 5 37 6 0 9 -10 7 -22 -4 -20 -3 -20 23 6 16 14 32 23 36 19 4 -5
6 -1 4 7 -2 8 2 14 8 13 6 -1 11 4 11 12 0 8 -4 12 -9 9 -13 -8 -9 6 6 22 18
17 50 19 40 2 -4 -7 -3 -8 4 -4 12 7 6 31 -12 55 -8 11 -8 13 2 7 6 -4 12 -3
12 3 0 17 58 -19 63 -40 4 -17 -69 -198 -88 -217 -2 -2 -40 11 -84 28 l-80 32
-17 57 c-8 31 -22 63 -29 71 -24 29 -1 159 87 492 51 189 68 232 68 170z
m2175 18 c3 -5 1 -10 -4 -10 -6 0 -11 5 -11 10 0 6 2 10 4 10 3 0 8 -4 11 -10z
m-4330 -68 c-3 -3 -12 3 -19 14 -15 19 -15 19 -31 -1 -8 -11 -36 -60 -61 -109
-25 -48 -47 -86 -49 -84 -3 2 23 57 57 122 l61 117 24 -27 c13 -15 21 -30 18
-32z m372 -49 c52 -84 54 -54 -23 -327 -30 -104 -54 -198 -54 -208 0 -17 -5
-19 -32 -13 -39 9 -68 23 -68 33 0 4 15 61 34 128 53 187 69 280 70 392 1 116
-3 116 73 -5z m-722 -1 c34 -56 44 -83 40 -100 -3 -14 -8 -23 -9 -21 -61 66
-117 167 -109 197 8 31 22 17 78 -76z m5617 38 c-9 -21 -19 -35 -21 -29 -4 13
19 69 29 69 5 0 1 -18 -8 -40z m195 24 c-3 -3 -12 -4 -19 -1 -8 3 -5 6 6 6 11
1 17 -2 13 -5z m-3872 -443 c-59 -86 -215 -357 -228 -394 -1 -5 -20 -2 -41 7
-21 9 -47 16 -57 16 -10 0 -20 4 -24 10 -3 5 28 77 70 160 112 224 209 444
241 546 l29 90 41 -164 42 -165 -73 -106z m1574 422 c6 -5 -15 -42 -91 -160
l-59 -92 -36 15 c-24 11 -60 14 -110 12 l-75 -3 6 44 c3 24 6 57 6 72 0 36 22
51 142 94 80 29 101 33 153 28 33 -3 62 -8 64 -10z m2165 11 c9 -3 16 -11 16
-16 0 -6 -6 -8 -14 -5 -9 4 -25 -19 -51 -74 -21 -44 -39 -78 -42 -75 -4 4 67
176 73 176 1 0 9 -3 18 -6z m-2075 -50 c20 -26 29 -60 14 -51 -11 7 -194 -302
-263 -445 -65 -135 -102 -240 -104 -299 -1 -33 -6 -41 -46 -67 -78 -51 -148
-83 -152 -70 -3 9 -21 6 -63 -10 -32 -12 -60 -21 -62 -19 -2 2 28 24 65 49 67
45 69 48 96 124 44 125 119 250 196 324 72 70 110 131 110 179 0 21 24 70 74
148 40 65 78 128 85 141 15 29 25 28 50 -4z m1743 -95 c-30 -71 -93 -168 -115
-175 -20 -6 -47 12 -47 32 0 8 23 46 50 84 28 39 63 93 78 120 l27 49 14 -30
c13 -27 13 -34 -7 -80z m-4417 65 c-8 -20 -15 -38 -15 -39 0 -1 -11 -2 -25 -2
-22 0 -45 21 -45 41 0 3 15 6 34 6 18 0 39 7 46 15 20 24 21 18 5 -21z m4942
-18 c4 -7 17 -13 28 -13 49 1 72 -5 97 -28 29 -25 28 -37 -1 -85 -5 -8 -17
-33 -26 -55 -31 -72 -35 -72 -73 7 -60 126 -80 176 -74 182 10 11 41 6 49 -8z
m-4207 -165 l-8 -163 -63 -122 c-34 -66 -71 -140 -83 -164 l-21 -43 -48 6
c-26 3 -58 10 -72 15 l-23 9 34 93 c19 51 56 138 83 193 48 97 200 350 206
343 2 -2 0 -77 -5 -167z m-766 114 c-4 -8 -10 -12 -15 -9 -14 8 -10 24 6 24 9
0 12 -6 9 -15z m3504 -69 c-16 -101 -6 -112 59 -67 44 30 45 31 17 5 -18 -16
-44 -39 -58 -52 -15 -12 -24 -27 -21 -32 3 -6 2 -10 -3 -10 -13 0 -22 -49 -10
-56 5 -3 2 -14 -6 -23 -13 -14 -13 -20 -3 -31 8 -8 8 -11 0 -6 -18 10 -22 -16
-6 -41 11 -16 11 -23 2 -29 -7 -4 -9 -3 -5 4 3 6 2 13 -3 16 -5 3 -7 -9 -4
-27 2 -17 4 -47 3 -65 0 -21 3 -31 10 -27 6 4 10 3 9 -2 -5 -26 1 -35 16 -23
12 10 13 8 10 -10 -3 -16 0 -20 10 -16 9 3 15 -1 15 -9 0 -9 -6 -12 -16 -8
-14 5 -16 2 -10 -21 4 -18 3 -25 -4 -21 -5 3 -10 14 -10 24 0 10 -7 24 -15 31
-8 7 -12 16 -9 22 3 5 0 15 -6 23 -7 8 -10 26 -8 40 3 14 2 28 -3 30 -4 3 -6
-15 -5 -39 2 -30 -1 -43 -8 -39 -6 3 -5 0 1 -7 10 -11 10 -17 0 -29 -10 -12
-9 -13 1 -7 9 5 15 1 19 -15 6 -22 7 -22 14 -3 7 18 8 18 8 -2 1 -20 18 -44
32 -44 4 0 10 11 13 25 4 14 11 23 17 20 7 -5 7 -11 0 -19 -8 -9 -7 -13 4 -13
7 0 13 5 12 11 -1 6 3 10 8 9 6 -1 12 8 12 20 2 17 0 19 -7 7 -8 -11 -9 -9 -6
10 2 20 9 25 30 24 24 -1 31 9 27 38 0 3 13 -1 30 -9 35 -17 102 -19 143 -3
58 22 35 1 -49 -45 -83 -45 -157 -77 -220 -95 -16 -5 -55 -16 -85 -24 -30 -9
-57 -16 -59 -16 -2 0 -1 57 2 128 7 142 44 331 72 362 10 11 14 26 10 39 -5
18 34 186 42 178 2 -2 -2 -38 -9 -81z m1072 25 c0 -8 -140 -264 -149 -274 -10
-10 -50 55 -58 93 -6 32 1 45 74 157 l53 82 40 -26 c22 -15 40 -29 40 -32z
m1437 -38 c18 -74 19 -88 7 -100 -8 -8 -14 -20 -15 -26 0 -7 -2 -21 -5 -32 -2
-11 -6 -47 -9 -81 -5 -51 -2 -65 15 -86 11 -15 20 -28 20 -31 0 -12 -126 -88
-162 -98 -57 -15 -130 -19 -150 -8 -12 7 -28 4 -50 -7 -22 -11 12 30 105 127
75 79 137 149 137 155 0 6 -9 23 -20 37 l-21 26 22 43 c34 69 93 168 99 168 3
0 15 -39 27 -87z m-6083 -4 l27 -47 -85 -338 c-47 -187 -86 -349 -88 -361 l-3
-22 -63 30 c-57 26 -63 31 -56 52 4 12 22 72 40 132 25 84 36 110 49 109 18
-2 55 48 40 53 -36 12 -36 18 19 209 30 104 57 206 61 227 8 43 8 43 59 -44z
m2775 -81 c-5 -151 -6 -154 -42 -224 -47 -93 -120 -184 -210 -261 -39 -35 -75
-63 -79 -63 -8 0 27 125 54 195 46 116 259 505 278 505 3 0 2 -69 -1 -152z
m-3509 135 c-1 -5 -7 -19 -15 -33 -10 -18 -14 -20 -15 -8 0 23 11 48 21 48 5
0 9 -3 9 -7z m5425 -33 c3 -5 2 -10 -2 -10 -5 0 -24 -28 -42 -62 -32 -59 -120
-208 -127 -217 -2 -2 -7 -2 -10 2 -3 3 23 54 59 114 36 59 73 125 83 146 18
38 28 45 39 27z m-5365 -43 c0 -5 -6 -4 -14 2 -18 15 -29 0 -20 -26 6 -17 6
-17 -11 -1 -16 15 -17 21 -6 44 11 26 12 26 31 9 11 -10 20 -22 20 -28z m5428
-136 c-6 -165 -6 -170 -40 -244 -19 -42 -38 -73 -44 -69 -5 4 -21 23 -36 42
-15 19 -38 48 -52 64 -23 26 -24 30 -11 55 7 15 19 56 25 91 16 87 73 201 92
182 6 -6 -3 -32 -23 -68 -48 -85 -20 -58 36 36 27 44 51 80 53 80 3 0 3 -76 0
-169z m330 -19 c30 -65 36 -85 26 -93 -21 -17 -159 -228 -200 -306 -47 -88
-69 -94 -127 -35 l-37 38 88 190 c49 104 107 233 128 287 l39 98 22 -48 c12
-26 40 -85 61 -131z m1052 166 c0 -7 3 -24 6 -38 5 -17 3 -22 -3 -15 -15 15
-25 65 -13 65 5 0 10 -6 10 -12z m-2694 -23 c9 -14 15 -27 13 -28 -20 -14 -59
-37 -64 -37 -3 0 -5 9 -5 19 0 11 -9 23 -20 26 -11 3 -20 15 -20 26 0 16 7 19
40 19 31 0 43 -5 56 -25z m3816 -9 c-11 -11 -18 -29 -17 -39 2 -11 1 -16 -3
-13 -11 12 -12 46 -1 46 5 0 7 5 4 10 -4 6 -1 9 7 8 7 -2 12 3 10 10 -1 8 2
11 9 7 7 -5 4 -14 -9 -29z m-2044 -67 c-20 -50 -66 -129 -74 -129 -2 0 17 43
43 95 26 52 48 93 50 91 2 -1 -7 -27 -19 -57z m1988 6 c-3 -20 -16 -31 -16
-13 0 13 8 28 16 28 1 0 1 -7 0 -15z m-986 -20 c7 4 19 -3 27 -15 11 -16 23
-21 43 -18 22 3 28 0 28 -16 2 -72 31 -126 67 -126 23 0 8 -49 -25 -80 -14
-14 -35 -40 -45 -57 -11 -18 -22 -33 -25 -33 -9 0 -130 336 -130 361 0 5 11 2
25 -7 13 -8 29 -13 35 -9z m-69 -82 l31 -98 -22 -38 c-18 -31 -25 -35 -37 -26
-7 7 -12 18 -9 25 3 7 -1 34 -8 61 -8 33 -9 67 -3 111 5 34 10 62 12 62 2 0
18 -44 36 -97z m185 82 c24 -18 7 -19 -26 0 -16 9 -19 14 -9 15 8 0 24 -7 35
-15z m1161 -77 c97 -161 104 -177 94 -195 -21 -40 -29 -162 -17 -273 7 -75 7
-75 -24 -105 -24 -23 -30 -35 -25 -55 10 -39 0 -23 -63 101 l-59 114 13 100
c8 55 17 166 20 248 4 81 8 147 9 147 1 0 25 -37 52 -82z m-7046 19 c-8 -8
-11 -7 -11 4 0 9 3 19 7 23 4 4 9 2 11 -4 3 -7 -1 -17 -7 -23z m3021 -69 c-17
-72 -25 -142 -28 -232 -2 -71 -5 -130 -7 -131 -1 -1 -18 -5 -38 -9 -36 -6 -37
-6 -78 62 l-41 68 36 134 c19 74 36 135 37 135 2 0 141 73 143 74 0 1 -10 -45
-24 -101z m2168 82 c0 -5 -13 -10 -30 -10 -29 0 -33 -5 -33 -42 0 -10 -3 -15
-7 -13 -12 7 -18 -43 -7 -54 6 -6 5 -16 -2 -28 -11 -16 -11 -15 -6 7 5 20 4
22 -5 8 -12 -19 -3 -51 13 -41 6 4 7 1 1 -8 -5 -8 -9 -29 -10 -47 -1 -28 0
-31 14 -20 13 12 14 11 2 -9 -13 -20 -15 -20 -26 -5 -7 9 -16 14 -20 9 -4 -4
-2 -7 4 -7 7 0 12 -5 12 -11 0 -5 -4 -8 -9 -4 -5 3 -12 1 -15 -3 -3 -5 23 -10
56 -11 99 -4 106 -20 10 -21 -46 0 -93 -5 -104 -11 -20 -11 -21 -10 -15 42 6
47 49 242 62 277 5 15 115 17 115 2z m-6077 -121 c51 -57 82 -100 77 -105 -5
-5 -11 -18 -13 -29 -10 -55 -33 -104 -67 -144 l-37 -43 -85 40 c-47 21 -88 45
-92 51 -4 6 11 58 34 116 22 58 48 134 58 170 12 49 19 62 28 52 6 -6 50 -55
97 -108z m1036 111 c32 0 33 -1 19 -17 -38 -43 -126 -262 -113 -282 3 -6 -26
-10 -70 -10 -64 0 -75 2 -75 17 0 16 72 152 136 255 22 36 34 46 49 42 11 -3
35 -5 54 -5z m2576 0 c-3 -5 -15 -10 -25 -10 -10 0 -26 -7 -35 -16 -23 -23
-30 -10 -8 15 17 21 80 31 68 11z m-1819 -51 c-16 -38 -48 -159 -76 -286 -17
-77 -17 -83 -2 -83 12 -1 8 -9 -16 -30 -26 -24 -38 -29 -60 -24 -15 4 -29 9
-31 11 -9 7 22 192 49 288 43 152 46 158 70 145 15 -8 27 -7 48 3 15 7 28 13
30 12 1 -1 -4 -17 -12 -36z m434 -9 c0 -5 -5 -10 -11 -10 -5 0 -7 5 -4 10 3 6
8 10 11 10 2 0 4 -4 4 -10z m1530 -22 c-6 -13 -21 -65 -34 -116 l-23 -93 -37
56 -37 56 16 48 c13 42 20 49 53 58 63 18 73 16 62 -9z m1239 -34 c-7 -17 -13
-24 -16 -16 -3 7 1 27 8 45 9 20 15 26 17 16 1 -8 -2 -29 -9 -45z m2127 10
c-2 -15 -9 -30 -17 -34 -15 -9 -132 -41 -135 -37 -7 7 11 59 27 76 15 16 32
21 74 21 52 0 54 -1 51 -26z m-4381 -2 c-3 -3 -11 0 -18 7 -9 10 -8 11 6 5 10
-3 15 -9 12 -12z m4695 -1 c0 -17 -18 -21 -24 -6 -3 9 0 15 9 15 8 0 15 -4 15
-9z m-214 -108 c-28 -80 -31 -85 -37 -58 -4 17 -7 46 -8 65 -1 30 4 38 37 56
20 12 37 22 38 23 0 1 -13 -38 -30 -86z m-4551 0 c-11 -8 -28 -19 -37 -24 -30
-16 -11 14 20 32 32 19 45 14 17 -8z m-553 2 c18 0 15 -14 -10 -38 -25 -24
-28 -25 -29 -8 -1 11 5 22 14 25 13 5 13 9 2 23 -12 15 -12 16 1 8 8 -6 18
-10 22 -10z m5009 -4 c-6 -10 -7 -21 -4 -25 7 -7 11 -25 15 -68 3 -33 5 -34
31 -10 19 17 20 17 4 -14 -9 -17 -41 -50 -72 -73 -47 -35 -59 -40 -71 -30 -24
20 -54 85 -60 132 l-6 44 78 30 c96 37 97 38 85 14z m-509 -80 l22 -45 16 39
16 38 33 -86 c19 -48 37 -87 41 -87 4 0 7 -20 6 -45 -1 -37 -9 -55 -51 -109
-50 -65 -99 -104 -109 -88 -3 5 14 38 37 74 61 93 65 100 83 133 14 27 13 26
-15 -7 -20 -23 -37 -35 -46 -32 -11 5 -7 15 20 46 27 33 32 44 24 59 -14 26
-20 24 -64 -21 -40 -41 -65 -51 -65 -26 0 8 3 16 8 18 4 2 18 16 32 32 l25 30
-41 -32 c-23 -18 -46 -32 -51 -32 -5 0 -33 11 -62 25 -29 14 -67 29 -84 32
-56 10 -62 24 -20 43 21 10 72 42 113 73 l75 54 17 -21 c10 -11 28 -41 40 -65z
m-4555 64 c0 -8 -4 -12 -9 -9 -5 3 -6 10 -3 15 9 13 12 11 12 -6z m-1839 -20
c2 -2 -13 -54 -32 -116 -20 -62 -36 -118 -36 -125 0 -7 -4 -15 -8 -18 -9 -5
-77 15 -88 26 -3 4 8 53 26 110 17 57 34 111 37 121 4 16 11 18 51 12 26 -4
48 -8 50 -10z m3844 -50 c3 -13 1 -22 -3 -19 -9 5 -13 44 -5 44 2 0 6 -11 8
-25z m1674 -108 c31 -60 202 -312 253 -371 l51 -60 -28 -11 c-15 -6 -59 -17
-99 -23 -69 -12 -74 -11 -128 14 -30 15 -55 32 -55 40 0 7 -6 11 -14 8 -18 -7
-46 94 -46 167 0 74 31 279 42 273 4 -3 15 -20 24 -37z m-4899 -31 c18 -29 35
-71 39 -94 6 -38 4 -41 -26 -57 -83 -43 -208 -60 -236 -32 -3 3 -17 -1 -30
-10 -46 -29 -23 -1 89 113 61 63 114 119 115 125 7 18 17 8 49 -45z m3883 41
c0 -2 -10 -12 -22 -23 l-23 -19 19 23 c18 21 26 27 26 19z m57 -24 c0 -9 -4
-10 -14 -2 -7 6 -13 12 -13 14 0 1 6 2 13 2 8 0 14 -6 14 -14z m-3233 -15
c-12 -19 -15 -78 -5 -78 6 0 8 -6 5 -14 -4 -10 -22 -4 -76 27 l-70 41 22 18
c26 21 137 27 124 6z m6684 -76 c11 -26 23 -78 27 -117 4 -38 13 -114 21 -167
8 -54 14 -110 14 -124 0 -25 -2 -24 -50 23 -53 52 -130 150 -130 166 0 5 -8
17 -18 26 -26 22 -46 61 -32 61 6 0 13 -7 16 -15 15 -37 25 -17 74 153 20 71
22 73 40 57 10 -9 27 -37 38 -63z m-5228 43 c-7 -8 -17 -15 -22 -15 -6 0 -5 7
2 15 7 8 17 15 22 15 6 0 5 -7 -2 -15z m2905 -60 c1 0 9 6 18 13 13 11 16 6
19 -43 l3 -56 -27 33 c-15 18 -34 47 -44 63 l-17 30 22 -20 c13 -11 24 -20 26
-20z m155 -16 c0 -5 0 -11 0 -14 0 -11 41 -45 53 -45 7 0 22 -7 33 -15 19 -14
18 -15 -6 -35 l-25 -20 23 0 c12 0 22 -4 22 -9 0 -20 61 12 104 55 25 24 53
45 63 45 36 2 58 -3 77 -19 15 -13 18 -14 11 -2 -6 11 -3 10 12 -2 11 -10 25
-18 32 -18 7 0 9 -6 6 -12 -4 -7 0 -4 9 6 14 18 15 15 10 -31 -4 -30 -2 -58 5
-71 8 -15 8 -22 1 -22 -5 0 -10 -10 -11 -22 l0 -23 -9 23 c-12 28 -33 37 -59
23 -12 -7 -22 -7 -26 -1 -3 5 -26 -2 -53 -16 -48 -26 -100 -26 -130 -2 -9 8
-17 7 -30 -4 -40 -35 -53 -31 -119 34 l-63 62 0 82 c0 57 4 84 13 87 14 5 57
-21 57 -34z m1665 21 c3 -5 -1 -10 -10 -10 -9 0 -13 5 -10 10 3 6 8 10 10 10
2 0 7 -4 10 -10z m-1545 -40 c0 -5 -4 -10 -10 -10 -5 0 -10 5 -10 10 0 6 5 10
10 10 6 0 10 -4 10 -10z m633 -12 c4 -14 -21 -37 -41 -38 -9 0 -8 7 5 25 20
27 29 31 36 13z m461 -7 c6 -5 15 -9 20 -10 5 0 14 -10 20 -22 13 -27 36 -37
36 -15 0 9 6 16 13 16 8 0 28 7 46 16 34 17 103 13 127 -7 8 -7 14 -7 19 1 3
5 11 10 17 10 7 0 7 -4 -1 -14 -8 -10 -8 -16 2 -25 23 -19 12 -82 -18 -108
-14 -13 -34 -23 -44 -23 -10 0 -21 -3 -24 -7 -12 -11 -68 -8 -79 5 -6 6 -16
12 -23 12 -6 0 -20 9 -30 20 -20 23 -45 26 -45 7 0 -14 -54 -50 -63 -41 -3 3
-14 1 -24 -4 -30 -16 -143 19 -143 44 0 8 -6 17 -14 20 -34 13 -6 59 76 130
15 13 115 9 132 -5z m-1114 -11 c0 -5 -7 -10 -15 -10 -8 0 -15 5 -15 10 0 6 7
10 15 10 8 0 15 -4 15 -10z m1902 -132 c45 -93 103 -166 175 -220 71 -52 73
-55 73 -96 l0 -33 -22 21 c-12 11 -28 18 -36 15 -7 -2 -10 0 -7 5 3 6 -1 10
-9 10 -8 0 -22 7 -30 16 -9 8 -16 13 -16 9 0 -3 -11 2 -25 11 -31 20 -31 16 1
-49 44 -87 10 -39 -55 78 -127 228 -126 227 -112 274 6 23 16 39 20 36 5 -2
24 -37 43 -77z m-2672 22 c0 -5 -2 -10 -4 -10 -3 0 -8 5 -11 10 -3 6 -1 10 4
10 6 0 11 -4 11 -10z m25 -30 c-3 -5 -10 -10 -16 -10 -5 0 -9 5 -9 10 0 6 7
10 16 10 8 0 12 -4 9 -10z m-3470 -50 c-3 -5 -12 -10 -18 -10 -7 0 -6 4 3 10
19 12 23 12 15 0z m2563 -33 c2 -19 -1 -27 -12 -27 -9 0 -16 6 -16 14 0 8 -3
22 -6 31 -5 13 -2 16 12 13 12 -2 20 -13 22 -31z m1910 -12 c36 -43 16 -81
-52 -97 -37 -8 -92 17 -100 46 -8 32 4 66 24 66 11 0 22 5 25 11 12 19 78 2
103 -26z m-205 -20 c-3 -9 -8 -14 -10 -11 -3 3 -2 9 2 15 9 16 15 13 8 -4z
m-3648 -15 c3 -5 -1 -10 -9 -10 -9 0 -16 5 -16 10 0 6 4 10 9 10 6 0 13 -4 16
-10z m3565 -52 c27 -25 37 -38 25 -35 -11 4 -60 11 -110 17 -86 11 -138 29
-84 31 13 0 40 6 59 13 53 20 61 18 110 -26z m-4055 12 c-3 -5 -10 -10 -16
-10 -5 0 -9 5 -9 10 0 6 7 10 16 10 8 0 12 -4 9 -10z m-1125 -70 c0 -16 5 -52
11 -81 9 -40 8 -57 -1 -75 -16 -29 -24 -24 -49 29 -11 23 -28 55 -38 71 -14
22 -15 30 -5 33 7 3 25 16 40 29 35 31 42 30 42 -6z m1065 10 c-3 -5 -12 -10
-18 -10 -7 0 -6 4 3 10 19 12 23 12 15 0z m2912 -6 c-3 -3 -12 -4 -19 -1 -8 3
-5 6 6 6 11 1 17 -2 13 -5z m128 -4 c3 -5 1 -10 -4 -10 -6 0 -11 5 -11 10 0 6
2 10 4 10 3 0 8 -4 11 -10z m-250 -10 c3 -5 -1 -10 -9 -10 -9 0 -16 5 -16 10
0 6 4 10 9 10 6 0 13 -4 16 -10z m65 -11 c0 -5 -7 -9 -15 -9 -15 0 -20 12 -9
23 8 8 24 -1 24 -14z m320 17 c0 -11 -19 -15 -25 -6 -3 5 1 10 9 10 9 0 16 -2
16 -4z m-420 -26 c0 -5 -7 -10 -15 -10 -8 0 -15 5 -15 10 0 6 7 10 15 10 8 0
15 -4 15 -10z m2030 -50 c0 -5 -7 -10 -15 -10 -8 0 -15 5 -15 10 0 6 7 10 15
10 8 0 15 -4 15 -10z m-202 -35 c-3 -3 -9 2 -12 12 -6 14 -5 15 5 6 7 -7 10
-15 7 -18z m239 -37 c-3 -8 -6 -5 -6 6 -1 11 2 17 5 13 3 -3 4 -12 1 -19z
m-4177 -12 c0 -3 -4 -8 -10 -11 -5 -3 -10 -1 -10 4 0 6 5 11 10 11 6 0 10 -2
10 -4z m5597 -53 c17 -27 36 -59 42 -73 l12 -25 -20 25 c-22 27 -75 120 -68
120 2 0 17 -21 34 -47z m82 -78 c0 -13 -5 -7 -13 15 -7 18 -10 45 -7 60 4 22
6 20 12 -15 5 -22 8 -49 8 -60z m-7349 18 c0 -22 -2 -25 -10 -13 -13 20 -13
40 0 40 6 0 10 -12 10 -27z m7360 -99 c0 -8 -4 -12 -10 -9 -5 3 -10 10 -10 16
0 5 5 9 10 9 6 0 10 -7 10 -16z"/>
<path d="M845 4029 c-4 -6 -5 -12 -2 -15 2 -3 7 2 10 11 7 17 1 20 -8 4z"/>
<path d="M996 3863 c-6 -14 -5 -15 5 -6 7 7 10 15 7 18 -3 3 -9 -2 -12 -12z"/>
<path d="M5115 3749 c-44 -19 -60 -24 -100 -32 -5 -2 -14 -5 -20 -8 -5 -4 -18
-5 -27 -4 -10 2 -18 -1 -18 -6 0 -5 -11 -4 -25 1 -30 11 -30 10 -6 -39 21 -40
51 -71 51 -52 0 6 11 10 25 9 17 -2 21 -6 14 -13 -5 -5 -15 -10 -22 -10 -15
-1 -11 -46 6 -62 15 -15 73 22 196 125 l34 29 -28 41 c-15 23 -28 42 -29 41 0
0 -23 -9 -51 -20z"/>
<path d="M5305 3460 c-3 -6 1 -7 9 -4 18 7 21 14 7 14 -6 0 -13 -4 -16 -10z"/>
<path d="M5290 3394 c-54 -56 -52 -65 3 -15 25 24 62 71 54 71 -1 0 -27 -25
-57 -56z"/>
<path d="M5135 3270 c-3 -5 -1 -10 4 -10 6 0 11 5 11 10 0 6 -2 10 -4 10 -3 0
-8 -4 -11 -10z"/>
<path d="M411 3144 c0 -11 3 -14 6 -6 3 7 2 16 -1 19 -3 4 -6 -2 -5 -13z"/>
<path d="M1765 3773 c21 -51 76 -141 98 -160 34 -31 28 -4 -10 44 -21 27 -49
72 -62 101 -28 59 -49 72 -26 15z"/>
<path d="M4596 3692 c-3 -5 1 -9 9 -9 8 0 12 4 9 9 -3 4 -7 8 -9 8 -2 0 -6 -4
-9 -8z"/>
<path d="M3715 3750 c11 -74 152 -324 163 -290 2 6 -14 34 -36 63 -43 56 -84
133 -114 212 -15 42 -18 45 -13 15z"/>
<path d="M3380 3535 c-11 -13 -10 -14 4 -9 9 3 16 10 16 15 0 13 -6 11 -20 -6z"/>
<path d="M3255 3410 c-3 -5 -1 -10 4 -10 6 0 11 5 11 10 0 6 -2 10 -4 10 -3 0
-8 -4 -11 -10z"/>
<path d="M3215 3380 c-3 -5 -1 -10 4 -10 6 0 11 5 11 10 0 6 -2 10 -4 10 -3 0
-8 -4 -11 -10z"/>
<path d="M2986 3254 c-5 -14 -9 -14 -24 -3 -14 11 -15 11 -4 -1 18 -21 15 -34
-5 -19 -16 12 -17 12 -6 -1 8 -10 9 -21 3 -30 -6 -8 -10 -19 -10 -24 0 -6 14
12 31 38 16 27 28 50 26 53 -3 2 -7 -4 -11 -13z"/>
<path d="M2916 3146 c6 -15 4 -17 -6 -11 -9 6 -11 4 -5 -4 5 -9 10 -10 18 -2
8 8 7 14 -2 24 -10 10 -11 8 -5 -7z"/>
<path d="M2886 3085 c-9 -26 -7 -32 5 -12 6 10 9 21 6 23 -2 3 -7 -2 -11 -11z"/>
<path d="M6970 3808 c0 -42 64 -217 75 -207 2 3 -7 34 -22 69 -14 35 -28 81
-31 102 -4 36 -22 65 -22 36z"/>
<path d="M1391 3764 c0 -11 3 -14 6 -6 3 7 2 16 -1 19 -3 4 -6 -2 -5 -13z"/>
<path d="M1520 3404 c0 -8 5 -12 10 -9 6 4 8 11 5 16 -9 14 -15 11 -15 -7z"/>
<path d="M2152 3620 c0 -14 2 -19 5 -12 2 6 2 18 0 25 -3 6 -5 1 -5 -13z"/>
<path d="M1470 3242 c0 -29 159 -172 192 -172 20 0 4 17 -37 39 -42 22 -103
78 -139 126 -9 12 -15 15 -16 7z"/>
<path d="M8025 3400 c-3 -6 1 -7 9 -4 18 7 21 14 7 14 -6 0 -13 -4 -16 -10z"/>
<path d="M7940 3369 c0 -5 5 -7 10 -4 6 3 10 8 10 11 0 2 -4 4 -10 4 -5 0 -10
-5 -10 -11z"/>
<path d="M2463 2055 c0 -8 4 -12 9 -9 5 3 6 10 3 15 -9 13 -12 11 -12 -6z"/>
<path d="M1575 1529 c-4 -6 -5 -13 -2 -16 7 -7 27 6 27 18 0 12 -17 12 -25 -2z"/>
<path d="M3500 3031 c0 -14 81 -83 88 -76 4 4 -1 11 -11 16 -10 6 -31 23 -47
39 -17 16 -30 26 -30 21z"/>
<path d="M656 2693 c-3 -7 -11 -12 -17 -11 -6 2 -13 -13 -15 -32 -3 -31 -2
-33 8 -15 7 11 13 23 13 26 0 4 11 16 24 26 18 15 20 20 8 20 -9 0 -18 -6 -21
-14z"/>
<path d="M725 2681 c-3 -5 -2 -12 3 -15 5 -3 9 1 9 9 0 17 -3 19 -12 6z"/>
<path d="M2876 2227 c3 -10 9 -15 12 -12 3 3 0 11 -7 18 -10 9 -11 8 -5 -6z"/>
<path d="M2789 2108 c-5 -18 -6 -38 -1 -34 7 8 12 36 6 36 -2 0 -4 -1 -5 -2z"/>
<path d="M4821 2123 c-1 -6 -4 -20 -7 -30 -5 -17 -5 -17 6 0 6 10 9 23 6 30
-3 9 -5 9 -5 0z"/>
<path d="M4660 2095 c0 -2 6 -8 13 -14 10 -8 14 -7 14 2 0 8 -6 14 -14 14 -7
0 -13 -1 -13 -2z"/>
<path d="M4786 2083 c-6 -14 -5 -15 5 -6 7 7 10 15 7 18 -3 3 -9 -2 -12 -12z"/>
<path d="M5700 2560 c-6 -11 -8 -20 -6 -20 3 0 10 9 16 20 6 11 8 20 6 20 -3
0 -10 -9 -16 -20z"/>
<path d="M7393 2285 c-1 -38 1 -46 15 -43 23 5 24 81 2 86 -12 2 -16 -8 -17
-43z"/>
<path d="M6644 2198 c1 -13 -1 -28 -6 -34 -4 -6 -2 -11 5 -11 13 0 17 50 5 62
-3 3 -5 -5 -4 -17z"/>
<path d="M2774 2138 l-19 -23 23 19 c12 11 22 21 22 23 0 8 -8 2 -26 -19z"/>
<path d="M7702 2061 c3 -27 -3 -33 -15 -16 -13 17 -14 16 -12 -11 2 -27 30
-94 40 -94 2 0 25 21 52 47 26 25 40 44 31 40 -11 -4 -18 -2 -18 6 0 7 -3 8
-8 2 -13 -18 -32 -16 -25 3 5 14 3 15 -8 5 -16 -16 -29 -17 -29 -2 0 5 4 8 8
5 5 -3 9 1 9 8 0 7 -6 13 -13 13 -7 0 -13 -3 -12 -6z"/>
<path d="M7363 1828 c-48 -61 -77 -105 -56 -83 19 19 113 136 113 141 0 11
-12 -1 -57 -58z"/>
<path d="M1602 1330 c-18 -29 -15 -36 8 -15 20 18 26 35 12 35 -4 0 -13 -9
-20 -20z"/>
<path d="M1615 1280 c-3 -5 -1 -10 4 -10 6 0 11 5 11 10 0 6 -2 10 -4 10 -3 0
-8 -4 -11 -10z"/>
<path d="M4485 4349 c-4 -6 -5 -12 -2 -15 7 -7 37 7 37 17 0 13 -27 11 -35 -2z"/>
<path d="M3515 4306 c-11 -7 -33 -21 -48 -30 -16 -10 -26 -20 -23 -23 5 -5 33
12 95 54 2 2 2 5 0 7 -2 2 -13 -2 -24 -8z"/>
<path d="M2210 4280 c0 -5 -13 -10 -30 -10 -32 0 -40 -14 -14 -24 8 -3 26 2
39 12 26 18 32 32 15 32 -5 0 -10 -4 -10 -10z"/>
<path d="M6000 4220 c0 -40 13 -53 24 -24 11 29 7 64 -9 64 -11 0 -15 -11 -15
-40z"/>
<path d="M3450 4185 c-11 -13 -10 -18 6 -30 10 -8 24 -14 29 -14 6 0 19 6 29
14 16 12 17 17 6 30 -7 8 -23 15 -35 15 -12 0 -28 -7 -35 -15z"/>
<path d="M5220 3975 c-17 -20 -6 -45 20 -45 17 0 21 5 18 27 -4 31 -20 40 -38
18z"/>
<path d="M8745 3526 c-72 -34 -129 -56 -144 -56 -9 0 -29 -7 -45 -15 -15 -8
-35 -15 -42 -15 -8 0 -18 -8 -21 -17 -4 -10 -17 -26 -30 -36 -13 -10 -23 -23
-23 -29 0 -6 7 -5 18 4 27 23 87 48 115 48 14 0 28 4 31 9 3 5 22 12 43 16 20
4 46 13 57 21 12 8 44 14 76 14 48 0 56 3 66 24 8 18 8 28 1 35 -15 15 -66 13
-102 -3z"/>
<path d="M8755 3330 c-4 -6 -13 -9 -21 -6 -8 3 -14 1 -14 -3 0 -13 26 -21 66
-21 36 0 46 14 17 24 -10 3 -23 8 -30 12 -6 3 -14 0 -18 -6z"/>
<path d="M8610 3130 c0 -14 7 -20 24 -20 31 0 53 25 30 34 -32 12 -54 7 -54
-14z"/>
<path d="M9030 3097 c0 -12 -20 -25 -72 -47 -16 -7 -28 -18 -28 -26 0 -8 -4
-14 -10 -14 -6 0 -10 -29 -10 -68 0 -75 16 -102 58 -102 11 0 24 -4 27 -10 10
-16 131 -12 145 4 6 8 21 16 33 18 21 3 22 8 22 113 l0 110 -30 3 c-16 2 -37
6 -45 9 -8 3 -22 5 -32 4 -9 -1 -19 3 -23 9 -9 14 -35 13 -35 -3z"/>
<path d="M8535 3050 c-3 -5 3 -10 14 -10 11 0 23 5 26 10 3 6 -3 10 -14 10
-11 0 -23 -4 -26 -10z"/>
<path d="M100 2525 c0 -8 -9 -15 -20 -15 -32 0 -25 -34 10 -47 l30 -11 0 44
c0 24 -4 44 -10 44 -5 0 -10 -7 -10 -15z"/>
<path d="M10 2520 c8 -5 22 -9 30 -9 10 0 8 3 -5 9 -27 12 -43 12 -25 0z"/>
<path d="M5619 2002 c7 -12 17 -20 22 -16 6 3 9 7 7 8 -2 1 -12 8 -22 16 -18
14 -19 14 -7 -8z"/>
<path d="M3845 1930 c-4 -6 5 -10 20 -10 15 0 24 4 20 10 -3 6 -12 10 -20 10
-8 0 -17 -4 -20 -10z"/>
<path d="M5052 1874 c3 -18 34 -42 42 -33 3 3 3 15 -1 27 -6 26 -46 32 -41 6z"/>
<path d="M5098 1733 c7 -3 16 -2 19 1 4 3 -2 6 -13 5 -11 0 -14 -3 -6 -6z"/>
<path d="M5229 1658 c-12 -22 -11 -22 7 -8 10 8 20 15 22 16 2 1 -1 5 -7 8 -5
4 -15 -4 -22 -16z"/>
<path d="M3745 1570 c3 -5 13 -10 21 -10 8 0 12 5 9 10 -3 6 -13 10 -21 10 -8
0 -12 -4 -9 -10z"/>
<path d="M4570 1506 c0 -9 30 -14 35 -6 4 6 -3 10 -14 10 -12 0 -21 -2 -21 -4z"/>
<path d="M4517 1478 c14 -16 12 -23 -9 -19 -5 0 -7 -2 -7 -6 1 -5 1 -15 0 -23
-1 -13 -3 -13 -12 0 -9 13 -10 12 -5 -2 4 -13 -2 -20 -19 -24 -15 -4 -28 -16
-31 -29 -5 -18 -12 -22 -38 -20 -19 1 -33 -3 -33 -10 0 -7 10 -10 24 -7 16 3
23 0 23 -12 0 -10 -11 -19 -30 -22 -16 -4 -30 -10 -30 -15 0 -10 32 -4 60 11
12 7 19 18 16 25 -8 21 15 30 29 12 7 -9 16 -13 20 -9 5 4 5 1 0 -7 -7 -12
-10 -11 -20 2 -17 24 -28 21 -15 -3 6 -11 7 -19 3 -18 -13 3 -63 -24 -63 -34
0 -5 5 -6 12 -2 7 4 8 3 4 -5 -4 -6 -12 -8 -18 -5 -7 5 -9 1 -5 -9 11 -30 -2
-18 -23 21 -12 20 -18 28 -15 17 4 -11 8 -31 10 -45 4 -23 3 -23 -11 5 -9 18
-13 22 -11 10 2 -11 -2 -26 -9 -33 -17 -16 -20 -15 -22 3 -1 8 -3 22 -4 30 -1
8 -4 12 -8 10 -9 -6 0 -64 12 -71 5 -4 21 0 34 7 22 11 30 10 60 -6 30 -16 35
-24 33 -49 -4 -50 9 -72 49 -88 34 -13 44 -13 85 0 43 14 47 18 47 46 0 17 -9
42 -19 55 -15 20 -28 24 -72 25 -41 1 -54 5 -57 17 -5 25 46 56 105 64 l53 7
-15 28 c-20 39 -19 45 10 58 30 14 32 28 5 35 -25 6 -27 36 -2 38 17 2 38 5
57 8 23 3 -44 27 -84 30 -48 2 -64 8 -57 20 3 4 -1 8 -9 8 -13 0 -12 -4 2 -19z
m53 -38 c-14 -4 -28 -2 -32 4 -5 7 -8 7 -8 -1 0 -7 -5 -13 -11 -13 -8 0 -8 4
0 13 7 9 23 12 43 9 31 -5 32 -6 8 -12z m-20 -40 c0 -25 -25 -37 -44 -21 -10
9 -15 8 -20 -4 -7 -18 -50 -21 -44 -2 3 6 15 13 27 15 12 2 25 10 28 18 3 8
16 14 29 14 17 0 24 -6 24 -20z"/>
<path d="M5760 1460 c0 -5 7 -10 15 -10 8 0 15 5 15 10 0 6 -7 10 -15 10 -8 0
-15 -4 -15 -10z"/>
<path d="M3677 1316 c-7 -17 17 -41 31 -32 6 3 15 -1 22 -9 12 -14 40 -21 40
-10 0 12 -61 65 -74 65 -8 0 -16 -6 -19 -14z"/>
<path d="M4900 1300 c-30 -23 -21 -50 18 -50 36 0 54 17 42 40 -14 27 -34 30
-60 10z"/>
<path d="M620 1286 c0 -2 9 -6 20 -9 11 -3 20 -1 20 4 0 5 -9 9 -20 9 -11 0
-20 -2 -20 -4z"/>
<path d="M6540 1255 c-7 -8 -10 -18 -7 -21 9 -10 48 7 44 19 -6 18 -23 19 -37
2z"/>
<path d="M4301 1244 c0 -11 3 -14 6 -6 3 7 2 16 -1 19 -3 4 -6 -2 -5 -13z"/>
<path d="M4231 1193 c7 -10 10 -15 5 -11 -8 7 -70 -11 -63 -19 8 -7 97 19 97
29 0 5 -4 7 -9 3 -5 -3 -12 -1 -16 5 -3 5 -11 10 -17 10 -6 0 -5 -7 3 -17z"/>
<path d="M5494 1156 c-22 -19 -26 -27 -17 -37 23 -23 71 21 54 50 -6 9 -15 6
-37 -13z"/>
<path d="M7204 1145 c-37 -16 -59 -58 -44 -85 5 -10 32 -26 59 -35 45 -15 52
-15 80 0 60 31 64 81 8 116 -37 22 -60 23 -103 4z"/>
<path d="M6250 1131 c0 -6 4 -13 10 -16 6 -3 7 1 4 9 -7 18 -14 21 -14 7z"/>
<path d="M7660 1090 l-25 -20 27 0 c29 0 46 16 32 30 -5 5 -20 0 -34 -10z"/>
<path d="M2465 1091 c-34 -10 -75 -43 -75 -60 0 -10 10 -28 21 -40 37 -40 139
-17 139 31 0 30 -19 58 -40 58 -10 0 -20 4 -22 8 -1 5 -12 6 -23 3z"/>
<path d="M8680 1079 c-23 -10 -40 -26 -40 -41 0 -4 17 -5 38 -3 20 2 45 4 55
4 23 1 22 28 -2 41 -23 12 -19 12 -51 -1z"/>
<path d="M3782 1069 c2 -7 10 -15 17 -17 8 -3 12 1 9 9 -2 7 -10 15 -17 17 -8
3 -12 -1 -9 -9z"/>
<path d="M3820 1069 c0 -5 5 -7 10 -4 6 3 10 8 10 11 0 2 -4 4 -10 4 -5 0 -10
-5 -10 -11z"/>
<path d="M7965 1050 c3 -5 8 -10 11 -10 2 0 4 5 4 10 0 6 -5 10 -11 10 -5 0
-7 -4 -4 -10z"/>
<path d="M1637 963 c-9 -9 12 -33 29 -33 12 0 12 4 2 20 -14 21 -21 24 -31 13z"/>
<path d="M4440 951 c0 -5 5 -13 10 -16 6 -3 10 -2 10 4 0 5 -4 13 -10 16 -5 3
-10 2 -10 -4z"/>
<path d="M2435 940 c3 -5 8 -10 11 -10 2 0 4 5 4 10 0 6 -5 10 -11 10 -5 0 -7
-4 -4 -10z"/>
<path d="M2380 930 c0 -5 5 -10 11 -10 5 0 7 5 4 10 -3 6 -8 10 -11 10 -2 0
-4 -4 -4 -10z"/>
<path d="M5056 932 c-3 -6 -1 -14 5 -17 15 -10 25 3 12 16 -7 7 -13 7 -17 1z"/>
<path d="M5560 926 c0 -8 14 -26 31 -40 46 -39 65 -33 33 12 -8 12 -19 20 -24
17 -4 -3 -10 2 -14 10 -7 19 -26 20 -26 1z m40 -21 c5 3 14 -5 20 -17 11 -22
10 -22 -4 -4 -9 11 -16 16 -16 12 0 -5 -7 -3 -15 4 -8 7 -15 18 -15 24 0 6 5
3 11 -7 6 -9 14 -15 19 -12z"/>
<path d="M4795 890 c-3 -5 3 -10 14 -10 11 0 23 5 26 10 3 6 -3 10 -14 10 -11
0 -23 -4 -26 -10z"/>
<path d="M3515 850 c-3 -5 1 -10 10 -10 9 0 13 5 10 10 -3 6 -8 10 -10 10 -2
0 -7 -4 -10 -10z"/>
<path d="M3110 755 c0 -18 19 -40 26 -32 4 4 0 15 -9 24 -9 10 -17 13 -17 8z"/>
</g>
</svg>
