<?xml version="1.0" encoding="UTF-8" standalone="no"?>
<svg
   xmlns:dc="http://purl.org/dc/elements/1.1/"
   xmlns:cc="http://creativecommons.org/ns#"
   xmlns:rdf="http://www.w3.org/1999/02/22-rdf-syntax-ns#"
   xmlns:svg="http://www.w3.org/2000/svg"
   xmlns="http://www.w3.org/2000/svg"
   width="235"
   height="49"
   viewBox="0 0 62.177082 12.964583"
   version="1.1"
   id="svg8">
  <defs
     id="defs2" />
  <metadata
     id="metadata5">
    <rdf:RDF>
      <cc:Work
         rdf:about="">
        <dc:format>image/svg+xml</dc:format>
        <dc:type
           rdf:resource="http://purl.org/dc/dcmitype/StillImage" />
        <dc:title></dc:title>
      </cc:Work>
    </rdf:RDF>
  </metadata>
  <g
     id="layer1">
    <rect
       style="opacity:1;fill:#006DD9;stroke-width:0.264583;fill-opacity:1"
       id="rect2193"
       width="62.173573"
       height="13.029389"
       x="-0.03340869"
       y="0" />
    <g
       id="g2149"
       transform="matrix(0.01881721,0,0,0.01881721,3.9534155,2.5121396)">
      <g
         fill="#ffc400"
         id="g2082">
        <path
           d="m 222,419.3 c -1.7,-2.1 -3.5,-5.6 -4.1,-7.8 -1.1,-3.8 -0.8,-17.1 0.7,-38.5 l 0.5,-7.5 -2.2,2.5 c -5.1,5.7 -10.1,20.1 -12.8,36.2 l -1.6,9.8 -3.5,-1.8 c -7.7,-3.9 -10,-15.8 -4.8,-25.7 3.6,-6.8 11.6,-17.9 17.7,-24.4 2.8,-3 4.9,-5.6 4.7,-5.8 -0.8,-0.8 -10.1,4.5 -16.5,9.3 -7.2,5.4 -17.6,17.2 -21.2,23.9 -2.8,5.3 -4.4,5.4 -7,0.5 -7.3,-13.5 7.7,-29.1 36.9,-38.7 l 8.4,-2.7 -0.6,-3.8 c -1.2,-7.5 -4.8,-15 -9.5,-19.9 -4.4,-4.5 -5.1,-4.9 -9.4,-4.9 -8.3,0 -14,3.7 -17.1,11 -0.8,2 -1.8,8.1 -2.1,13.5 -0.6,7.7 -1.2,10.5 -2.6,12.1 -1.3,1.4 -9.8,4.6 -24.8,9.4 l -23,7.4 1.5,3.4 c 1.9,4.6 1.8,6.9 -0.4,8.1 -2.5,1.3 -4.8,-0.3 -7.2,-4.8 -1.6,-3.3 -2.5,-3.9 -6,-4.4 -4.5,-0.6 -8.3,-3.4 -10.6,-7.9 -2,-3.8 -1.7,-7.4 0.8,-11.9 l 2.2,-4 -3.6,-7.2 c -1.9,-4 -11.3,-23.3 -20.9,-43 -13.7,-28.5 -17.5,-35.4 -18.1,-33.8 -0.6,1.7 -4.3,4.1 -6.4,4.1 -0.2,0 -1.1,-1.7 -2,-3.9 -1.2,-3.1 -2.2,-4 -4.7,-4.5 -4.4,-0.9 -10.4,-5 -12.1,-8.4 -0.8,-1.5 -1.7,-4.9 -2.1,-7.5 l -0.7,-4.8 5.3,2.1 c 6.9,2.6 8.3,2.6 6.9,0.1 -2.1,-4 -0.2,-16.7 2.6,-17.8 2.2,-0.8 11.5,4 14.4,7.5 l 2.9,3.6 0.9,-2.5 c 3.2,-8.2 3.6,-8.8 5.3,-7.6 0.9,0.7 2.8,3 4.3,5.1 3,4.5 3.5,11.9 1.1,16.6 -1.4,2.8 -1.4,3.3 0.5,7 l 2,3.9 -2.9,1.6 c -1.6,0.8 -3.7,1.2 -4.5,0.9 -0.9,-0.3 -1.6,-0.4 -1.6,-0.1 0,0.4 9.2,19.6 20.4,42.9 l 20.5,42.3 3.5,0.6 c 4.4,0.7 8.4,3.3 9.8,6.5 0.9,2 1.8,2.4 5.3,2.4 3.3,0 13.4,-2.8 23.4,-6.5 0.9,-0.4 -0.5,-2.5 -4.3,-6.6 -7.5,-8.1 -10.8,-14.7 -11.4,-23 -0.8,-11.5 4.5,-18 16.5,-19.9 4.5,-0.7 6.4,-1.6 8.6,-4 2.6,-3 2.7,-3.3 2.7,-15.3 0,-14 -0.9,-18.4 -4.8,-22.2 -3.1,-3.2 -9.6,-6.4 -12.9,-6.5 -2.1,0 -2.3,0.4 -2.3,6.3 0,12.5 -4.5,24.1 -11,28.5 -3.1,2.1 -4.3,2.3 -11.1,2 -5.4,-0.3 -8.6,-1.1 -10.9,-2.5 l -3.1,-2 5,-3.2 c 6.6,-4.3 13.9,-12.3 17.4,-19.3 3.2,-6.3 6,-15.9 4.9,-16.9 -0.7,-0.6 -9.6,-3 -9.7,-2.6 0,0.1 -1.1,2.4 -2.5,5.2 -5.4,10.6 -16.8,20.1 -27.1,22.4 -5.5,1.2 -11.9,0.4 -11.9,-1.5 0,-0.8 0.5,-1.4 1.1,-1.4 1.5,0 4.1,-6.8 3.4,-9 -0.5,-1.5 0.3,-2.4 3.4,-3.9 C 103,253.5 113.1,245 116,241 l 2.3,-3.2 -2.3,-4.1 c -1.3,-2.3 -2.4,-4.4 -2.6,-4.6 -0.2,-0.2 -2,1 -4.1,2.6 -4.6,3.6 -12.6,8.3 -14.1,8.3 -0.6,0 -1.6,-1.8 -2.2,-4 -0.6,-2.2 -2,-5.6 -3.1,-7.5 -2.3,-3.9 -2.5,-3.6 5,-5.5 2.4,-0.7 6.9,-2.2 9.9,-3.6 4.1,-1.8 5.3,-2.8 4.8,-4 -0.3,-0.9 -0.9,-2.6 -1.1,-3.7 -0.6,-2.2 -0.9,-2.2 -15.3,-1.9 -27.3,0.7 -43.2,-4.2 -50.6,-15.5 -2.5,-3.8 -5.3,-12.9 -4.3,-13.9 0.3,-0.3 2.3,0.4 4.5,1.5 10.4,5.3 31.6,11.6 48.7,14.6 12.3,2.1 12.4,2 14.1,-2 2,-4.9 1.9,-5.3 -2.8,-6.5 -10.7,-2.7 -26.3,-8.6 -37.6,-14.1 -9.6,-4.7 -13.7,-7.5 -18.7,-12.2 -7.8,-7.6 -9.5,-12 -7.7,-20.4 1.9,-9 2.5,-9.1 9.5,-1.7 3.3,3.6 10.4,9.8 15.7,13.8 14,10.5 41.3,26.6 45.3,26.6 0.7,0 2.5,-1.3 4,-2.8 l 2.8,-2.9 -11.8,-8.9 C 78.8,146.1 58.8,127 51.7,114.9 c -3.6,-6 -3.8,-6.8 -3.5,-13.1 0.3,-5.5 0.9,-7.5 3.3,-10.9 1.7,-2.3 3.5,-4.4 4.1,-4.6 0.6,-0.2 4,3.1 7.5,7.4 15.6,19.1 37.6,44 51.9,58.8 17.8,18.3 23.3,25 25,30 1.6,4.9 0.7,7.8 -4.2,13.1 -4.8,5.2 -5.5,9.6 -2.2,14.1 4,5.4 8.6,6.8 23.3,7.1 l 13.3,0.4 -2.5,-3.4 c -3.1,-3.9 -6.6,-11.6 -6.7,-14 0,-1.4 0.8,-1.8 3.5,-1.8 11.2,0 20.1,-4.9 23.1,-12.5 3.7,-9.9 -1.5,-26.7 -11.7,-37.9 -2.8,-3 -5.9,-5.8 -7,-6.1 -3.3,-1.1 -8,0.6 -12.1,4.3 -3.2,2.9 -4.1,3.3 -4.9,2.1 -1.5,-2.4 -1,-3.9 2.7,-7.3 l 3.6,-3.3 -3.8,-0.6 c -6.5,-1.1 -10.7,-0.7 -15.3,1.3 -2.4,1.1 -4.5,2 -4.6,2 -0.2,0 -0.9,-1.6 -1.5,-3.5 -2.2,-6.7 3.4,-12.1 13.6,-13.3 2.8,-0.3 4.4,-1 4.4,-1.8 0,-0.8 1.3,-2.8 2.9,-4.6 l 2.9,-3.3 24.6,-0.3 c 13.5,-0.2 24.6,0 24.6,0.4 0,1.5 -5.1,7.3 -7,7.9 -1.9,0.6 -1.6,1.2 3,6.2 2.8,3 6.4,7.5 8.1,9.9 7.8,11.3 13.5,29.8 14.6,46.7 0.3,5.3 0.9,9.7 1.3,9.7 0.4,0 1,-4.4 1.3,-9.7 1.1,-16.9 6.8,-35.4 14.6,-46.7 1.7,-2.4 5.3,-6.9 8.1,-9.9 4.6,-5 4.9,-5.6 3,-6.2 -1.9,-0.6 -7,-6.4 -7,-7.9 0,-0.4 11.1,-0.6 24.6,-0.4 l 24.6,0.3 2.9,3.3 c 1.6,1.8 2.9,3.8 2.9,4.6 0,0.8 1.6,1.5 4.4,1.8 10.2,1.2 15.8,6.6 13.6,13.3 -0.6,1.9 -1.3,3.5 -1.5,3.5 -0.1,0 -2.2,-0.9 -4.6,-2 -4.6,-2 -8.8,-2.4 -15.3,-1.3 l -3.8,0.6 3.6,3.3 c 3.7,3.4 4.2,4.9 2.7,7.3 -0.8,1.2 -1.7,0.8 -4.9,-2.1 -4.1,-3.7 -8.8,-5.4 -12.1,-4.3 -3.3,1 -11.8,11.1 -15.2,18 -1.9,3.9 -3.5,9.3 -4.2,13.8 -0.9,6.5 -0.8,8.1 0.7,12.2 3,7.6 11.9,12.5 23.1,12.5 2.7,0 3.5,0.4 3.5,1.8 0,2.2 -3.3,9.5 -6,13.2 -1.1,1.5 -2,3.1 -2,3.5 0,0.4 5.7,0.5 12.8,0.3 10.5,-0.2 13.4,-0.7 16.6,-2.4 8.7,-4.5 10.5,-11.8 4.4,-18.2 -9.9,-10.3 -8.5,-13.4 18.2,-40.7 20,-20.4 36.9,-39.6 52,-58.8 4.6,-5.9 8.7,-10.7 9.1,-10.7 0.4,0 1.8,1.3 3.2,3 6,7 6.2,17.2 0.6,26.6 -6.5,11 -29.1,32.6 -52.1,49.8 l -7.7,5.8 2.1,4.4 2.2,4.4 10.1,-5.4 c 20.2,-10.7 39.5,-24.5 49.7,-35.5 6.4,-6.9 7.1,-6.7 9,2.2 1.8,8.4 0.1,12.8 -7.7,20.4 -5,4.7 -9.2,7.5 -18.7,12.2 -11.2,5.5 -34.5,14.1 -38.5,14.1 -1.3,0 -1.5,0.8 -0.9,4.7 0.3,2.5 0.8,4.9 1.1,5.1 0.9,0.9 22,-3 34,-6.3 6.6,-1.8 15.8,-5 20.5,-7 4.7,-2 9.1,-3.9 9.8,-4.2 3.3,-1.4 -0.8,11.1 -5.3,16.5 -7.8,9 -22.3,13.2 -45.9,13.2 h -14.3 l -1.2,4.1 c -1.5,5 -1.6,4.9 9.4,8.5 11.3,3.7 28.6,4.4 40.3,1.7 7.4,-1.8 8.2,-1.9 8.2,-0.4 -0.1,3.1 -3.7,9.7 -7.6,13.3 -5.5,5.4 -11.6,7.2 -22.8,6.6 -10.6,-0.6 -19.2,-3.7 -28.1,-9.9 -3.1,-2.1 -5.7,-3.9 -5.9,-3.9 -0.2,0 -1.6,1.8 -3.1,4 l -2.7,3.9 2.2,3.1 c 3.1,4.4 13.2,12.6 19.3,15.7 2.9,1.4 8.3,3.6 12,4.8 3.7,1.2 6.9,2.6 7,3 0.4,1.8 -8,6.5 -13.4,7.5 -12.9,2.4 -27,-5.1 -36,-19.1 -1.7,-2.7 -3.5,-4.9 -3.9,-4.9 -0.4,0 -2.8,0.9 -5.3,2 -4.3,1.9 -4.5,2.2 -3.8,4.8 3,10.4 11.9,22.3 21.2,28.3 l 5,3.2 -3.1,2 c -2.3,1.4 -5.5,2.2 -10.9,2.5 -6.8,0.3 -8,0.1 -11.1,-2 -6.5,-4.4 -11,-16 -11,-28.5 0,-5.9 -0.1,-6.3 -2.3,-6.3 -4.2,0 -12.5,4.9 -14.9,8.8 -2.1,3.3 -2.3,5.2 -2.6,17.8 l -0.4,14.2 2.9,3.1 c 2.2,2.5 4,3.3 8.6,4.1 12,1.9 17.3,8.4 16.5,19.9 -0.6,8.3 -3.9,14.9 -11.4,23 -3.8,4.1 -5.2,6.2 -4.3,6.6 0.8,0.3 8.1,2.7 16.2,5.4 12.6,4.2 15.2,4.8 17.7,3.9 1.7,-0.5 3,-1.4 3,-1.9 0,-0.5 9.8,-0.9 22.4,-0.9 h 22.5 l -1,2.9 c -1.6,4.4 -7.4,10.7 -12.2,13 -5.2,2.5 -15.8,2.8 -26.9,0.7 -13.3,-2.6 -57.2,-15.6 -59.4,-17.7 -1.8,-1.7 -2.2,-3.6 -2.8,-12.1 -0.4,-5.6 -1.4,-11.7 -2.2,-13.7 -3.1,-7.4 -8.8,-11.1 -17.1,-11.1 -4.3,0 -5,0.4 -9.4,4.9 -4.7,4.9 -8.3,12.4 -9.5,19.9 l -0.6,3.8 8.4,2.7 c 29.2,9.6 44.2,25.2 36.9,38.7 -1,1.9 -2.5,3.6 -3.2,3.8 -0.8,0.1 -2.6,-1.9 -4,-4.5 -6.2,-11.3 -19.2,-24 -31,-30.3 -3.3,-1.8 -6.2,-3 -6.5,-2.7 -0.3,0.2 1.8,2.8 4.6,5.8 6.2,6.5 14.2,17.6 17.8,24.4 5.2,9.9 2.9,21.8 -4.8,25.7 l -3.5,1.8 -1.6,-9.8 c -2.7,-16.1 -7.7,-30.5 -12.8,-36.2 l -2.2,-2.5 0.5,8 c 1.7,24.2 1.9,33.5 0.6,37.8 -1.2,4.3 -6.2,11.7 -8,11.7 -0.5,0 -2.2,-1.7 -4,-3.7 z"
           id="path2054" />
        <path
           d="m 331,346.8 c 0,-2.9 5.5,-10.2 9.8,-12.9 6.9,-4.4 7.2,-4.2 7.2,5.6 v 8.5 h -8.5 c -5.8,0 -8.5,-0.4 -8.5,-1.2 z"
           id="path2056" />
        <path
           d="m 358,339.5 c 0,-9.5 0.2,-9.8 6.4,-6.2 4.6,2.6 9.2,8 10.1,12 l 0.7,2.7 h -8.6 -8.6 z"
           id="path2058" />
        <path
           d="m 349,325 v -4 h 4 4 v 4 4 h -4 -4 z"
           id="path2060" />
        <path
           d="m 108.2,117.5 c -2.5,-3.2 -2.7,-5 -0.7,-8.5 3,-5.2 2.2,-6 -5.5,-6 -3.8,0 -7,-0.4 -7,-1 0,-0.5 2,-2.3 4.5,-4 2.5,-1.7 4.5,-3.9 4.5,-4.8 -0.1,-0.9 -1.4,-3.3 -3,-5.2 -3.2,-3.7 -3.6,-5.6 -1.9,-9.3 1.3,-3 5.2,-5.3 10.4,-6.2 3.3,-0.5 4.7,-1.6 8,-5.8 5,-6.4 8.4,-9.7 10,-9.7 2.6,0 16.6,9.4 17.1,11.4 0.3,1.2 -0.8,5 -2.4,8.6 -1.6,3.6 -3.2,8 -3.5,9.8 -0.9,4.4 1.7,10.6 5.7,13.7 3.4,2.7 2,3.4 -3.1,1.4 -7.9,-3 -10.4,-9.7 -7.7,-20.6 1.5,-6 1.6,-7.8 0.5,-11.2 -0.6,-2.3 -1.7,-4.1 -2.4,-4.1 -1.7,0 -16.9,8.7 -17.9,10.3 -1.8,2.8 -0.8,8.4 2.5,13.1 7.5,10.9 7.5,12.6 0.1,20.6 -1.3,1.4 -3.2,4.3 -4.2,6.4 l -1.9,3.8 z"
           id="path2062" />
        <path
           d="m 340.3,117.3 c -0.6,-1.6 -2.4,-4.5 -4,-6.4 -8.2,-9.5 -8.2,-10.4 -0.5,-21.5 C 339,84.7 340,79.1 338.2,76.3 337.2,74.7 322,66 320.3,66 c -0.7,0 -1.8,1.9 -2.5,4.1 -1,3.5 -0.9,5.2 0.5,10.9 2.8,10.6 0.4,17.5 -7,20.6 -5.4,2.3 -7.3,1.8 -3.7,-1.1 4,-3.1 6.6,-9.3 5.7,-13.7 -0.3,-1.8 -1.9,-6.2 -3.5,-9.8 -1.6,-3.6 -2.7,-7.4 -2.4,-8.6 0.5,-2 14.5,-11.4 17.1,-11.4 1.5,0 4.7,3.1 10,9.8 3.2,4.1 4.8,5.2 8,5.7 5.2,0.9 9.1,3.2 10.4,6.2 1.7,3.7 1.3,5.6 -1.9,9.3 -1.6,1.9 -2.9,4.3 -3,5.2 0,0.9 2,3.1 4.5,4.8 2.5,1.7 4.5,3.5 4.5,4 0,0.6 -3.1,1 -7,1 -7.7,0 -8.5,0.8 -5.5,6 2,3.5 1.8,5.5 -0.8,8.6 l -2.4,2.7 z"
           id="path2064" />
        <path
           d="m 155.7,100.3 c -0.3,-1.6 -1.6,-5.6 -2.9,-9.1 -2.1,-5.7 -2.2,-6.4 -0.8,-9 1.7,-2.9 4.9,-4.8 9.7,-5.8 2.9,-0.6 2.9,-0.6 4.7,7.3 3,12.9 3.3,12.8 6.7,-2.4 1.2,-5.3 1.3,-5.4 4.3,-4.7 5,1 7.9,2.7 9.6,5.6 1.4,2.6 1.3,3.3 -0.8,9 -1.3,3.5 -2.6,7.5 -2.9,9.1 l -0.5,2.7 h -13.3 -13.3 z"
           id="path2066" />
        <path
           d="m 184,101.1 c 0,-1.7 0.6,-2.1 3.3,-2.1 6.6,-0.1 16.1,-6.1 19.3,-12.2 2.2,-4.2 1.7,-7.4 -2.1,-12.7 -7.3,-10.1 -7.9,-15.9 -2.4,-20.5 2.4,-2.1 11.2,-5.6 13.9,-5.6 0.3,0 2.6,6.1 5,13.5 2.4,7.4 4.7,13.5 5,13.5 0.3,0 2.6,-6.1 5,-13.5 2.4,-7.4 4.7,-13.5 5,-13.5 2.7,0 11.5,3.5 13.9,5.6 5.5,4.6 4.9,10.4 -2.4,20.5 -1.9,2.7 -3.5,6 -3.5,7.4 V 84 h -13.9 -13.9 l -0.7,2.8 c -1.9,7.9 -12.4,14.6 -24.7,15.8 -6.5,0.6 -6.8,0.6 -6.8,-1.5 z"
           id="path2068" />
        <path
           d="m 256.4,102 c -9.3,-1.9 -17.9,-8.2 -19.9,-14.7 -0.6,-2.2 -0.3,-2.3 3.9,-2.3 2.5,0 4.6,0.4 4.6,1 0,0.5 1.5,2.6 3.2,4.6 3.8,4.3 11.8,8.4 16.6,8.4 2.5,0 3.2,0.4 3.2,2 0,1.7 -0.6,2 -3.7,1.9 -2.1,-0.1 -5.7,-0.5 -7.9,-0.9 z"
           id="path2070" />
        <path
           d="m 268.7,100.3 c -0.3,-1.6 -1.6,-5.6 -2.9,-9.1 -2.1,-5.7 -2.2,-6.4 -0.8,-9 1.7,-2.9 4.9,-4.8 9.7,-5.8 2.9,-0.6 2.9,-0.6 4.7,7.3 3,12.9 3.3,12.8 6.7,-2.4 1.2,-5.3 1.3,-5.4 4.3,-4.7 5,1 7.9,2.7 9.6,5.6 1.4,2.6 1.3,3.3 -0.8,9 -1.3,3.5 -2.6,7.5 -2.9,9.1 l -0.5,2.7 h -13.3 -13.3 z"
           id="path2072" />
        <path
           d="m 166.7,73.2 c -2.2,-2.4 -2.1,-3.9 0.3,-5.4 1.1,-0.7 2,-1.6 2,-2 0,-0.5 -0.9,-0.8 -2,-0.8 -1.7,0 -2,-0.7 -2,-4 v -4 h 4.5 4.5 v 4 c 0,3.3 -0.3,4 -2,4 -1.1,0 -2,0.3 -2,0.8 0,0.4 0.9,1.3 2,2 2.5,1.5 2.5,3.4 0.2,5.5 -2.4,2.2 -3.5,2.1 -5.5,-0.1 z"
           id="path2074" />
        <path
           d="m 279.7,73.2 c -2.2,-2.4 -2.1,-3.9 0.3,-5.4 1.1,-0.7 2,-1.6 2,-2 0,-0.5 -0.9,-0.8 -2,-0.8 -1.7,0 -2,-0.7 -2,-4 v -4 h 4.5 4.5 v 4 c 0,3.3 -0.3,4 -2,4 -1.1,0 -2,0.3 -2,0.8 0,0.4 0.9,1.3 2,2 2.5,1.5 2.5,3.4 0.2,5.5 -2.4,2.2 -3.5,2.1 -5.5,-0.1 z"
           id="path2076" />
        <path
           d="m 223.6,45.7 c -3.8,-2.7 0.2,-9.5 4.2,-7.1 2.4,1.6 2.8,5.5 0.6,7.1 -1,0.7 -2.1,1.3 -2.4,1.3 -0.3,0 -1.4,-0.6 -2.4,-1.3 z"
           id="path2078" />
        <path
           d="m 222,33 v -4 h 4 4 v 4 4 h -4 -4 z"
           id="path2080" />
      </g>
      <g
         fill="#d50000"
         id="g2086">
        <path
           d="m 223.6,314.3 c -1.1,-2.6 -3.5,-6.4 -5.3,-8.4 l -3.3,-3.7 -14.5,-0.4 -14.5,-0.3 -3.2,-3.3 -3.3,-3.2 -0.3,-44 -0.3,-44 h 47.1 47.1 l -0.3,44 -0.3,44 -3.3,3.2 -3.2,3.3 -14.5,0.3 -14.5,0.4 -3.3,3.7 c -1.8,2 -4.2,5.8 -5.3,8.4 -1,2.6 -2.1,4.7 -2.4,4.7 -0.3,0 -1.4,-2.1 -2.4,-4.7 z"
           id="path2084" />
      </g>
      <g
         fill="#ffffff"
         id="g2090">
        <path
           d="m 221.3,290.3 c -1.5,-1.2 -1.5,-1.4 0.3,-3.4 1.7,-1.9 1.4,-1.8 -1.8,0.4 -4.7,3.1 -10,4.1 -14.3,2.7 -3.3,-1.1 -4.7,-3.3 -5.9,-9.5 l -0.6,-3 2,2.4 c 1.1,1.3 2,3 2,3.9 0,2.9 1.5,0.1 1.7,-3.1 0.3,-6.8 1.6,-13.3 2.9,-14.7 2.4,-2.8 0.3,-16.2 -2.1,-13.8 -0.3,0.3 -0.7,2.6 -0.9,5.3 -0.3,3.7 -1,5.4 -3.5,7.8 l -3.1,3.2 v -6.8 c 0,-11.8 4.7,-18 9.5,-12.5 l 2.2,2.5 2.7,-1.9 2.7,-2 1.7,4.1 c 1.1,2.7 2.3,4.1 3.6,4.1 1.5,0 1.7,-0.5 1.2,-2.7 -0.4,-1.6 -1.6,-4 -2.6,-5.5 -1.1,-1.5 -2,-3.5 -2,-4.5 0,-1.6 -0.8,-1.8 -6.3,-1.5 -5.2,0.3 -6.7,0 -9,-1.8 -3.9,-3.1 -3.4,-5.7 1.8,-10.6 4,-3.7 4.5,-4.6 4.5,-8.4 0,-4.2 0,-4.3 2,-2.5 1.1,1 2,2.7 2,3.7 0,1.7 14.8,40.2 21.5,56 1.3,3.1 2.1,5.9 1.7,6.4 -0.4,0.4 -0.1,0.4 0.6,-0.1 1.4,-0.7 1.3,-3.3 -0.3,-8.3 -0.6,-1.8 -0.4,-2.1 0.9,-1.6 0.9,0.3 1.6,1.7 1.6,3.2 0,1.6 0.4,2.2 0.9,1.7 1,-1 1.5,-5.2 1.3,-9.2 -0.2,-2.6 -4.8,-8.3 -6.8,-8.3 -1.9,0 -1.8,2.5 0.2,4.4 1.3,1.4 1.3,1.6 0.1,1.6 -1,0 -4.2,-6.6 -9.6,-20.3 -4.5,-11.2 -8.1,-20.7 -8.1,-21.1 0,-0.4 0.9,-0.5 2,-0.1 1.5,0.5 2.1,0 2.6,-2 1.2,-5 7.4,-5.4 7.4,-0.4 0,2.1 -2.8,5.1 -4.1,4.4 -1.8,-1.2 -0.8,0.3 2.6,3.9 1.9,2.1 3.5,3.3 3.5,2.7 0,-1.6 6.1,-8.1 7.6,-8.1 0.8,0 1.4,-0.7 1.4,-1.5 0,-2.3 2.4,-1.8 5,1 1.3,1.4 3,2.5 3.9,2.5 1.1,0 1.2,0.3 0.4,1.1 -0.7,0.7 -0.5,2.7 0.7,6.7 2.8,8.9 1.2,10.4 -4.8,4.6 -3.6,-3.5 -3.7,-3.5 -4,-1.3 -0.2,1.2 0.5,3.8 1.6,5.8 1.1,2 2.3,5.3 2.7,7.4 0.7,3.5 0.9,3.7 4.6,3.7 3.3,0 4,0.4 4.5,2.6 1,3.8 -1.2,10.1 -3.7,10.7 -1.5,0.4 -1.9,0.1 -1.7,-1.1 0.2,-0.9 0.8,-1.6 1.3,-1.5 1.5,0.3 3.6,-4.3 2.9,-6.2 -0.6,-1.4 -1.5,-1.6 -5.3,-1 -2.5,0.4 -4.9,1 -5.3,1.3 -0.9,0.9 1.9,14.3 3.3,15.7 0.6,0.6 1.6,0.5 2.9,-0.3 1.1,-0.6 3,-1.2 4.2,-1.2 2,0 1.9,0.3 -1.2,2.9 -3,2.5 -3.3,3 -1.7,3.6 0.9,0.4 2.4,0.4 3.3,0.1 1.1,-0.4 1.4,-0.1 1.2,1 -0.5,2.6 -9.3,5 -13,3.6 -2.6,-1 -3,-0.8 -4,1.4 -0.8,1.7 -2,2.4 -4.2,2.5 -1.7,0 -4.6,0.1 -6.3,0.2 -1.8,0.1 -4,-0.4 -5,-1 z m -8.1,-9.5 c -0.4,-4.5 2,-7.2 5.7,-6.4 2.4,0.6 2.4,0.5 0.9,-0.7 -1,-0.8 -1.8,-2.5 -1.8,-3.9 0,-1.4 -0.3,-2.7 -0.6,-3.1 -0.9,-0.8 -7.3,3.3 -9,5.8 -1.6,2.4 -2.1,7.8 -1,11.2 0.6,1.7 1.1,2 3.4,1.4 2.4,-0.7 2.6,-1.2 2.4,-4.3 z m 16.7,-7 c -1.2,-2.9 -2.5,-6.3 -3,-7.5 -1.2,-3.2 -2.1,-2.8 -4.3,1.9 l -1.9,4.2 3.8,3.3 c 2.1,1.8 4.7,3.3 5.7,3.3 1.7,0 1.7,-0.3 -0.3,-5.2 z m -0.5,-27.5 c -0.7,-7.2 -2.3,-9.6 -3.8,-6.2 -0.6,1.3 -0.4,3.7 0.8,7.4 2.4,7.7 3.9,7.1 3,-1.2 z"
           id="path2088" />
      </g>
      <g
         fill="#afb42b"
         id="g2094">
        <path
           d="m 221.3,290.3 c -1.5,-1.2 -1.5,-1.4 0.3,-3.4 1.7,-1.9 1.4,-1.8 -1.8,0.4 -4.7,3.1 -10,4.1 -14.3,2.7 -3.3,-1.1 -4.7,-3.3 -5.9,-9.5 l -0.6,-3 2,2.4 c 1.1,1.3 2,2.9 2,3.7 0,1.8 3.8,2.6 7.5,1.6 2.7,-0.8 3,-1.2 2.7,-4.4 -0.4,-4.5 2,-7.2 5.6,-6.3 2.6,0.6 9.2,5.5 9.2,6.8 0,0.4 0.7,0.7 1.6,0.7 1.4,0 1.4,-0.3 0.4,-1.5 -1,-1.2 -0.9,-1.5 0.4,-1.5 1,0 2.2,1.3 2.8,3 2.1,6.3 4.4,0.6 2.3,-5.8 -0.6,-1.8 -0.4,-2.1 0.9,-1.6 0.9,0.3 1.6,1.7 1.6,3.1 0,1.3 0.4,2.1 1,1.8 0.6,-0.3 1,-1.7 1,-3.1 0,-5.1 2.9,-1.5 4.6,5.9 0.3,1.5 1.3,2.7 2,2.7 1.2,0 1.2,-0.5 -0.1,-3.1 -0.9,-1.7 -1.5,-3.2 -1.3,-3.2 0.2,-0.1 1.3,-0.8 2.5,-1.4 1.3,-0.7 3.3,-1.3 4.5,-1.3 2,0 1.9,0.3 -1.2,2.9 -3,2.5 -3.3,3 -1.7,3.6 0.9,0.4 2.4,0.4 3.3,0.1 1.1,-0.4 1.4,-0.1 1.2,1 -0.5,2.6 -9.3,5 -13,3.6 -2.6,-1 -3,-0.8 -4,1.4 -0.8,1.7 -2,2.4 -4.2,2.5 -1.7,0 -4.6,0.1 -6.3,0.2 -1.8,0.1 -4,-0.4 -5,-1 z"
           id="path2092" />
      </g>
      <g
         fill="#1565c0"
         id="g2100">
        <path
           d="m 201.6,239.9 c -3.6,-2.8 -3.3,-5.4 1.1,-9.7 l 3.8,-3.7 0.3,2.5 c 0.5,3 2,4.2 4.5,3.4 1.3,-0.4 2.2,0.5 3.6,3.8 1,2.4 1.7,4.6 1.4,5.1 -0.2,0.4 -3,0.7 -6.2,0.7 -4.4,0 -6.5,-0.5 -8.5,-2.1 z"
           id="path2096" />
        <path
           d="m 218.7,229.8 c -3,-3.2 -3.1,-4.3 -0.3,-3.2 1.7,0.7 5.3,6.5 3.9,6.3 -0.5,-0.1 -2.1,-1.5 -3.6,-3.1 z"
           id="path2098" />
      </g>
      <g
         fill="#b88a21"
         id="g2110">
        <path
           d="m 195.3,301.3 c 3.1,-0.2 8.3,-0.2 11.5,0 3.1,0.2 0.5,0.3 -5.8,0.3 -6.3,0 -8.9,-0.1 -5.7,-0.3 z"
           id="path2102" />
        <path
           d="m 245.3,301.3 c 3.1,-0.2 8.3,-0.2 11.5,0 3.1,0.2 0.5,0.3 -5.8,0.3 -6.3,0 -8.9,-0.1 -5.7,-0.3 z"
           id="path2104" />
        <path
           d="m 219.7,288.6 c -0.3,-0.8 0.4,-2.2 1.5,-3.3 1.4,-1.1 1.8,-1.3 1.3,-0.3 -0.5,0.8 -1,2.1 -1.1,2.8 -0.4,2.1 -1.1,2.4 -1.7,0.8 z"
           id="path2106" />
        <path
           d="m 236.7,279.3 c -0.3,-0.5 -0.1,-1.7 0.4,-2.8 0.7,-1.7 0.8,-1.7 0.8,0.8 0.1,2.7 -0.4,3.4 -1.2,2 z"
           id="path2108" />
      </g>
    </g>
    <text
       xml:space="preserve"
       style="font-style:normal;font-weight:normal;font-size:5.64444px;line-height:1.25;font-family:sans-serif;letter-spacing:-0.523875px;fill:#000000;fill-opacity:1;stroke:none;stroke-width:0.264583"
       x="14.282215"
       y="6.8654861"
       id="text2167"><tspan
         id="tspan2165"
         x="14.282215"
         y="6.8654861"
         textLength="40"
         style="font-style:normal;font-variant:normal;font-weight:bold;font-stretch:normal;font-size:5.64444px;font-family:sans-serif;-inkscape-font-specification:'Myriad Pro Bold';fill:#ffffff;stroke-width:0.264583">Название сайта</tspan></text>
    <text
       xml:space="preserve"
       style="font-style:normal;font-weight:normal;font-size:3.175px;line-height:1.25;font-family:sans-serif;letter-spacing:-0.05291667px;fill:#000000;fill-opacity:1;stroke:none;stroke-width:0.264583"
       x="14.398624"
       y="10.044112"
       id="text2167-0"><tspan
         id="tspan2165-7"
         x="14.398624"
         y="10.044112"
         style="font-style:normal;font-variant:normal;font-weight:normal;font-stretch:normal;font-size:3.175px;font-family:sans-serif;-inkscape-font-specification:sans-serif;fill:#ffffff;stroke-width:0.264583;">Московская обл.</tspan></text>
  </g>
</svg>
